<?xml version="1.0" standalone="no"?>
<!DOCTYPE svg PUBLIC "-//W3C//DTD SVG 20010904//EN"
 "http://www.w3.org/TR/2001/REC-SVG-20010904/DTD/svg10.dtd">
<svg version="1.0" xmlns="http://www.w3.org/2000/svg"
 width="811.000000pt" height="456.000000pt" viewBox="0 0 811.000000 456.000000"
 preserveAspectRatio="xMidYMid meet">

<g transform="translate(0.000000,456.000000) scale(0.100000,-0.100000)"
fill="#000000" stroke="none">
<path d="M5870 4360 c-13 -8 -13 -10 2 -10 9 0 20 5 23 10 8 13 -5 13 -25 0z"/>
<path d="M1295 4343 c-46 -16 -65 -29 -87 -61 -14 -20 -14 -30 -3 -73 8 -28
18 -55 23 -62 5 -7 15 -36 21 -65 10 -47 9 -54 -9 -72 -16 -16 -18 -24 -9 -50
6 -17 20 -35 30 -41 10 -5 19 -20 19 -32 0 -12 8 -34 17 -47 26 -36 10 -127
-26 -152 -10 -7 -22 -28 -25 -46 -8 -36 7 -43 44 -20 18 12 18 13 2 31 -16 18
-16 18 14 1 27 -15 29 -20 18 -32 -30 -30 5 -42 52 -17 17 9 56 15 95 15 45 0
70 5 78 14 8 10 9 16 1 21 -16 10 -12 166 5 189 8 11 15 31 15 44 0 13 11 37
25 54 29 34 33 73 9 86 -13 7 -16 21 -12 67 3 31 10 60 15 63 10 7 17 61 14
109 -1 23 -40 46 -122 72 -56 18 -159 20 -204 4z"/>
<path d="M5906 4347 c-22 -6 -49 -18 -60 -28 -10 -10 -24 -15 -29 -12 -6 4 -8
0 -4 -10 4 -11 1 -15 -13 -12 -26 5 -33 -38 -16 -100 8 -27 15 -42 15 -33 1
10 8 35 17 57 l16 40 61 -5 c40 -2 71 -11 89 -24 19 -14 29 -16 34 -9 5 8 10
6 16 -5 5 -9 15 -16 23 -16 7 0 15 -6 17 -12 3 -7 13 -13 24 -13 10 0 19 -5
19 -12 0 -6 3 -15 8 -19 4 -4 7 2 7 13 0 11 3 23 7 27 22 22 6 106 -21 106 -7
0 -16 9 -19 20 -3 11 -10 20 -17 20 -6 0 -8 -4 -5 -10 9 -14 -2 -12 -30 6 -13
9 -29 13 -34 9 -7 -4 -9 1 -5 12 5 16 4 16 -8 3 -15 -17 -58 -25 -58 -11 0 5
10 11 23 13 21 3 21 4 2 9 -11 3 -38 1 -59 -4z"/>
<path d="M5829 4333 c-13 -16 -12 -17 4 -4 16 13 21 21 13 21 -2 0 -10 -8 -17
-17z"/>
<path d="M6030 4340 c0 -5 5 -10 11 -10 5 0 7 5 4 10 -3 6 -8 10 -11 10 -2 0
-4 -4 -4 -10z"/>
<path d="M4227 4277 c3 -12 18 -30 35 -40 16 -9 32 -26 35 -37 5 -18 7 -19 17
-5 6 9 18 17 26 19 53 11 62 37 10 31 -16 -2 -32 0 -35 6 -4 5 -14 9 -24 9
-10 0 -26 9 -36 20 -24 26 -33 25 -28 -3z"/>
<path d="M3994 4261 c-16 -16 -40 -31 -53 -33 -17 -2 -25 -10 -26 -26 l-2 -22
23 21 c21 20 22 20 27 2 4 -16 5 -16 6 0 0 9 8 17 17 17 8 0 12 4 9 10 -3 5 6
21 22 35 15 13 23 25 17 25 -7 0 -25 -13 -40 -29z"/>
<path d="M4015 4206 c-22 -12 -50 -38 -63 -56 -21 -31 -22 -42 -18 -124 5 -83
27 -186 46 -211 11 -16 19 -56 9 -49 -14 9 -10 -6 6 -23 17 -17 12 -47 -12
-75 -13 -14 -12 -17 3 -26 14 -8 25 -5 47 14 16 13 33 24 38 24 14 0 42 -49
36 -64 -10 -24 76 -36 114 -16 29 16 25 48 -6 48 -30 0 -30 0 -39 29 -6 18 -4
22 8 17 11 -4 16 -1 16 10 0 9 4 16 10 16 5 0 12 11 16 25 3 14 10 25 14 25 4
0 13 34 20 75 7 41 16 75 21 75 4 0 5 12 1 28 -4 15 -6 36 -6 47 1 11 2 28 3
38 1 10 6 15 11 12 6 -3 10 -1 10 5 0 6 -7 13 -16 17 -10 3 -14 13 -11 25 3
11 -3 34 -14 52 -20 34 -103 86 -135 85 -15 0 -13 -3 6 -11 56 -23 90 -42 90
-50 0 -5 7 -16 15 -24 8 -9 15 -21 15 -27 0 -7 -5 -4 -11 6 -12 20 -92 62 -86
44 6 -17 -33 -85 -52 -89 -22 -6 -89 27 -70 35 9 3 9 6 2 6 -7 1 -10 8 -7 16
4 9 0 15 -9 15 -8 0 -17 -10 -21 -23 -3 -13 -12 -24 -21 -24 -11 0 -13 7 -8
26 11 43 59 81 103 81 12 0 18 5 15 10 -9 15 -26 12 -70 -14z m195 -196 c-8
-5 -19 -10 -25 -10 -5 0 -3 5 5 10 8 5 20 10 25 10 6 0 3 -5 -5 -10z m-150
-52 c-14 -11 -16 -18 -8 -21 8 -3 9 -6 2 -6 -6 -1 -27 13 -45 30 -34 31 -34
31 -7 25 17 -4 32 -1 40 8 11 13 15 13 26 -2 11 -14 10 -20 -8 -34z m48 27
c-3 -13 0 -26 5 -28 6 -2 7 -9 3 -15 -13 -21 -26 -2 -22 31 6 40 5 37 12 37 4
0 4 -11 2 -25z m57 16 c-3 -5 4 -13 15 -16 12 -4 19 -12 17 -18 -7 -21 -24
-17 -35 8 -15 32 -15 35 -1 35 5 0 8 -4 4 -9z m-48 -177 c-3 -3 -12 -4 -19 -1
-8 3 -5 6 6 6 11 1 17 -2 13 -5z"/>
<path d="M4300 4149 c0 -5 5 -7 10 -4 6 3 10 8 10 11 0 2 -4 4 -10 4 -5 0 -10
-5 -10 -11z"/>
<path d="M5845 4122 c-40 -8 -39 -22 2 -22 23 0 49 -3 57 -6 12 -4 15 -2 10 9
-6 16 -37 25 -69 19z"/>
<path d="M6013 4110 c-35 -14 -28 -18 27 -17 43 2 48 4 33 15 -19 14 -29 14
-60 2z"/>
<path d="M5774 4102 c-12 -8 -11 -71 2 -95 7 -12 10 0 9 43 0 33 0 60 0 60 0
0 -5 -4 -11 -8z"/>
<path d="M5837 4083 c-13 -12 -7 -22 10 -16 11 4 14 3 9 -5 -5 -8 0 -12 13
-12 12 0 21 5 21 11 0 5 6 7 13 3 8 -5 8 -2 -2 9 -13 17 -52 23 -64 10z"/>
<path d="M6005 4071 c-6 -10 11 -24 33 -27 6 -1 12 2 12 7 0 5 8 9 18 9 14 0
15 2 2 10 -19 12 -57 13 -65 1z"/>
<path d="M4716 4027 c-44 -45 -65 -135 -75 -337 -17 -314 -24 -500 -19 -500 3
0 19 22 36 49 28 45 36 52 94 69 l63 18 -1 65 c-1 90 -42 181 -90 199 -39 16
-52 43 -32 68 12 15 11 16 -4 3 -16 -12 -18 -11 -18 4 0 9 9 19 19 22 11 3 21
14 24 25 4 14 2 18 -9 14 -11 -4 -14 4 -14 37 0 23 5 49 10 57 7 11 10 6 10
-20 0 -19 4 -41 9 -48 4 -7 6 13 3 45 -2 32 -1 54 4 50 4 -4 9 -20 10 -35 2
-15 5 -42 7 -59 2 -18 0 -30 -4 -27 -15 9 -10 -33 6 -46 13 -10 17 -7 30 23
37 88 106 130 218 131 40 1 52 -3 68 -23 26 -32 33 -22 19 27 -20 76 -82 103
-220 98 -80 -3 -83 -3 -52 10 38 17 118 22 150 11 29 -11 29 9 -1 54 l-23 34
-97 3 c-91 3 -99 1 -121 -21z m54 -101 c0 -2 -7 -7 -16 -10 -8 -3 -12 -2 -9 4
6 10 25 14 25 6z"/>
<path d="M5826 3997 c3 -8 -2 -17 -10 -20 -20 -8 -20 -55 -1 -81 8 -11 15 -35
15 -53 0 -20 5 -33 13 -33 7 0 17 -10 22 -22 6 -13 29 -32 52 -43 24 -11 43
-26 43 -32 0 -20 20 -15 21 5 0 9 3 12 6 5 9 -23 40 20 46 65 3 23 4 42 3 42
0 0 -16 -4 -34 -9 -17 -5 -32 -6 -32 -1 0 5 -12 10 -27 12 -17 2 -29 10 -31
21 -3 14 4 17 32 17 20 0 36 5 36 10 0 6 -11 10 -24 10 -14 0 -28 5 -31 10 -4
6 13 10 42 11 36 0 43 3 28 9 -11 5 -37 9 -57 9 -30 1 -45 9 -78 42 -22 22
-37 34 -34 26z"/>
<path d="M6836 3981 c-25 -28 -64 -35 -92 -16 -31 20 -34 19 -34 -12 0 -19 -3
-24 -9 -15 -5 9 -20 -7 -48 -55 -56 -95 -76 -160 -89 -283 -6 -54 -26 -156
-54 -271 -11 -46 -20 -87 -20 -92 0 -4 19 13 43 38 24 25 49 45 56 45 7 0 10
-3 8 -7 -5 -7 -9 -40 -22 -153 -11 -95 -46 -210 -71 -231 -8 -6 -14 -22 -14
-35 0 -26 -30 -47 -54 -38 -9 3 -16 2 -16 -2 0 -24 -64 -290 -71 -299 -6 -6
-7 3 -3 23 4 18 3 32 -2 32 -9 0 -16 52 -18 133 -1 35 -4 46 -14 42 -10 -3
-11 1 -6 18 3 12 3 18 -2 14 -10 -10 -33 83 -34 136 l0 38 28 -16 c19 -12 28
-26 29 -43 2 -64 3 -69 14 -43 6 16 6 28 -2 37 -16 20 1 17 25 -3 20 -17 20
-17 6 2 -28 40 -64 75 -76 75 -20 0 -25 30 -8 61 13 25 13 33 2 46 -7 9 -18
50 -23 92 l-11 76 -7 -140 c-3 -77 -11 -164 -17 -193 -10 -43 -9 -59 3 -85 22
-48 94 -267 102 -307 11 -58 16 -71 26 -64 5 3 6 11 2 17 -18 29 -11 37 28 31
l39 -7 0 49 c0 27 7 78 16 114 8 36 15 73 15 83 0 9 7 17 16 17 13 0 15 -8 9
-52 -4 -29 -9 -121 -12 -204 -4 -136 -3 -158 16 -213 12 -33 19 -65 15 -71 -3
-5 -1 -18 4 -27 17 -29 14 34 -4 93 -25 85 9 216 52 200 8 -3 20 -6 28 -6 7 0
15 -10 18 -21 4 -15 11 -20 22 -15 10 3 14 2 10 -5 -4 -5 -1 -16 5 -24 9 -11
9 -15 1 -15 -6 0 -11 -6 -11 -13 0 -10 12 -13 42 -11 26 2 37 -1 28 -6 -11 -7
-10 -11 3 -25 15 -14 17 -14 17 -1 0 21 18 30 34 17 7 -6 16 -7 21 -3 4 4 6
-5 3 -20 -4 -21 -2 -25 11 -21 9 3 23 14 31 25 13 16 19 17 43 6 32 -15 35
-43 8 -60 -15 -9 -17 -15 -9 -25 13 -16 4 -17 -22 -3 -12 6 -21 7 -25 1 -8
-14 30 -32 51 -24 14 5 16 2 12 -18 -3 -13 -9 -33 -13 -43 -6 -15 -5 -17 5
-11 8 5 11 3 8 -6 -3 -8 -14 -14 -25 -14 -12 0 -25 -4 -30 -9 -4 -5 -3 -6 4
-2 6 3 15 1 18 -5 5 -7 -20 -10 -84 -7 -68 2 -91 0 -91 -9 0 -9 22 -13 79 -13
62 0 80 -3 85 -15 10 -27 -6 -135 -20 -135 -7 0 -15 -6 -17 -12 -3 -7 -6 -3
-6 10 -1 12 -5 22 -11 22 -5 0 -10 9 -10 19 0 21 -29 36 -42 23 -6 -6 -2 -30
8 -61 9 -30 14 -64 10 -82 -4 -20 -2 -28 5 -23 7 4 9 0 5 -14 -4 -11 -2 -23 4
-27 5 -3 10 -25 10 -48 0 -23 7 -55 15 -71 18 -34 19 -39 4 -30 -7 4 -7 -2 1
-17 7 -12 14 -48 16 -78 4 -80 5 -81 30 -75 27 7 37 -16 34 -84 -2 -26 -2 -60
-1 -76 l1 -30 29 40 c29 40 30 40 19 119 -10 84 -4 245 11 255 28 17 151 316
151 366 0 8 8 24 19 35 15 17 20 43 26 155 4 74 10 134 13 134 3 0 16 -10 28
-21 l23 -21 -4 30 c-5 43 -33 92 -50 92 -14 0 -14 3 -1 23 15 24 56 210 53
242 -1 13 6 21 23 25 33 7 110 52 110 65 0 6 10 22 23 35 22 24 45 92 29 88
-4 -1 -17 3 -29 10 -12 7 -26 11 -30 10 -4 -2 -9 0 -10 5 -11 32 15 37 42 7
21 -23 35 -26 35 -7 0 25 -27 50 -56 51 -25 1 -29 5 -29 31 0 24 -7 33 -40 52
-22 12 -47 23 -56 23 -31 0 -48 33 -43 80 2 25 6 146 8 270 5 252 -2 293 -66
399 -35 58 -66 81 -55 42 3 -11 1 -19 -4 -15 -5 3 -9 14 -9 25 0 24 -2 24 -42
-1 -42 -26 -50 -25 -86 5 -36 30 -44 31 -66 6z m17 -115 c18 -7 45 -27 60 -43
l28 -30 -29 -12 c-16 -7 -59 -11 -96 -9 -72 3 -76 7 -55 66 6 19 19 32 32 35
12 2 23 5 25 6 1 0 17 -5 35 -13z m-56 -122 c-3 -3 -12 -4 -19 -1 -8 3 -5 6 6
6 11 1 17 -2 13 -5z m90 -11 c0 -10 3 -37 5 -60 4 -40 2 -43 -19 -43 -31 0
-29 -16 5 -28 25 -10 24 -10 -19 -11 -39 -1 -50 4 -77 32 -40 41 -51 83 -23
83 11 0 17 -5 14 -10 -4 -5 9 -7 33 -3 25 4 45 15 57 32 22 30 22 30 24 8z
m75 -53 c25 0 23 -28 -4 -50 -22 -18 -22 -17 -35 18 -13 38 -8 61 10 43 6 -6
19 -11 29 -11z m-132 -135 c0 -8 15 -17 35 -21 37 -7 38 -24 2 -24 -14 0 -29
11 -40 29 -19 33 -22 45 -7 36 6 -3 10 -12 10 -20z m70 15 c0 -5 -11 -10 -25
-10 -14 0 -25 5 -25 10 0 6 11 10 25 10 14 0 25 -4 25 -10z m-32 -139 c6 -16
7 -32 4 -36 -13 -12 31 -35 67 -35 24 0 31 -3 23 -9 -8 -4 -27 -7 -43 -5 -16
2 -29 -1 -29 -6 0 -6 9 -10 20 -10 20 0 25 -15 14 -44 -6 -15 -7 -15 -19 0 -8
12 -14 14 -19 6 -4 -7 -2 -12 4 -12 6 0 8 -4 5 -10 -3 -5 4 -11 17 -11 13 -1
28 -2 33 -4 6 -1 15 -3 22 -3 6 -1 9 -11 6 -23 -5 -16 -11 -19 -32 -15 -14 3
-20 3 -13 0 6 -3 12 -12 12 -20 0 -8 9 -14 20 -14 11 0 20 6 20 14 0 8 4 18
10 21 5 3 7 0 4 -8 -3 -8 -1 -18 5 -22 16 -9 13 -51 -4 -65 -13 -11 -14 -10
-8 6 6 17 5 17 -9 6 -26 -21 -58 1 -58 38 0 22 -5 30 -17 31 -11 0 -13 3 -5 6
17 7 15 19 -5 43 -18 20 -39 28 -28 10 3 -5 1 -19 -5 -30 -7 -13 -7 -20 0 -20
5 0 9 -6 8 -12 -2 -7 6 -13 17 -13 29 0 30 -30 2 -67 -14 -18 -30 -50 -36 -70
-7 -21 -26 -52 -44 -70 -17 -18 -32 -36 -33 -40 -1 -5 -2 -11 -3 -14 0 -3 -5
-2 -11 1 -6 4 -4 18 6 37 9 17 13 39 10 51 -3 14 5 29 27 50 29 26 30 30 14
42 -9 6 -14 15 -10 18 3 4 1 7 -5 7 -6 0 -15 -7 -19 -15 -8 -13 -11 -13 -28
-1 -17 12 -18 18 -8 34 9 15 8 25 -3 47 -18 35 -18 55 1 55 8 0 15 -4 15 -10
0 -5 14 -10 32 -10 17 0 28 3 24 8 -4 4 -12 7 -18 7 -16 0 -29 43 -16 51 7 5
8 2 3 -6 -5 -9 -4 -11 3 -6 9 5 9 13 2 26 -6 11 -9 23 -8 27 1 4 -6 22 -15 40
-23 44 -22 46 23 38 36 -6 40 -5 46 19 8 34 20 33 32 -3z m137 -129 c-3 -3
-11 0 -18 7 -9 10 -8 11 6 5 10 -3 15 -9 12 -12z m85 -46 c0 -5 -7 -1 -15 10
-8 10 -14 24 -14 29 0 6 6 1 14 -9 8 -11 15 -24 15 -30z m-110 14 c0 -5 -4
-10 -10 -10 -5 0 -10 5 -10 10 0 6 5 10 10 10 6 0 10 -4 10 -10z m78 -43 c17
-13 15 -27 -3 -27 -10 0 -15 -10 -15 -27 0 -20 3 -24 9 -14 5 8 16 11 25 8 9
-4 16 -2 16 3 0 6 5 10 10 10 6 0 10 -14 10 -30 0 -37 -25 -50 -45 -24 -14 18
-14 18 -15 -1 -1 -13 -4 -15 -7 -6 -5 11 -7 11 -14 0 -12 -20 -12 26 1 71 8
30 7 32 -4 18 -12 -16 -13 -15 -14 12 0 23 3 28 16 23 9 -3 23 -10 30 -16z
m92 -27 c0 -18 -13 -40 -23 -40 -6 0 -8 3 -4 6 3 3 -5 18 -18 32 -13 14 -22
29 -19 33 5 9 64 -19 64 -31z m10 -62 c-1 -18 -38 -96 -39 -80 -1 6 -8 12 -18
12 -14 0 -14 2 2 20 10 11 22 17 28 13 6 -4 7 -1 1 8 -15 25 -13 39 7 39 10 0
19 -6 19 -12z m35 -9 c11 -17 -1 -21 -15 -4 -8 9 -8 15 -2 15 6 0 14 -5 17
-11z m55 -34 c7 -8 16 -13 20 -10 16 10 21 -15 7 -30 -13 -13 -18 -11 -36 20
-20 35 -14 48 9 20z m-230 -41 c0 -8 -4 -12 -10 -9 -5 3 -10 10 -10 16 0 5 5
9 10 9 6 0 10 -7 10 -16z m60 -39 c0 -5 -5 -3 -10 5 -5 8 -10 20 -10 25 0 6 5
3 10 -5 5 -8 10 -19 10 -25z m30 9 c0 -8 -4 -12 -10 -9 -5 3 -10 13 -10 21 0
8 5 12 10 9 6 -3 10 -13 10 -21z m-149 -31 c20 5 27 -9 8 -15 -7 -2 -13 -20
-15 -38 -6 -84 -44 -200 -66 -200 -4 0 -5 -6 -2 -14 6 -15 64 -19 64 -4 0 4 5
8 11 8 5 0 7 -4 4 -10 -3 -5 0 -11 7 -11 24 -2 43 3 50 14 5 8 8 6 8 -5 0 -10
8 -19 18 -20 9 -1 -48 -4 -128 -8 -80 -3 -154 -2 -165 2 -17 6 -17 7 -2 7 10
1 17 9 17 20 0 11 5 23 10 26 6 4 7 13 2 22 -10 17 13 73 29 73 6 0 7 5 4 10
-4 6 7 28 24 49 17 21 31 44 31 50 0 6 7 11 15 11 8 0 15 5 15 12 0 6 8 20 18
31 15 17 17 18 20 2 3 -11 10 -15 23 -12z m327 -29 c28 -2 32 -5 32 -22 0 -11
-8 -27 -19 -36 -18 -16 -19 -15 -34 21 -14 35 -13 66 2 47 3 -5 12 -9 19 -10z
m-271 -36 c-3 -8 -6 -5 -6 6 -1 11 2 17 5 13 3 -3 4 -12 1 -19z m84 -10 c-4
-13 -6 -30 -4 -38 4 -13 3 -13 -6 0 -20 28 -14 49 16 59 1 1 -1 -9 -6 -21z
m-545 -49 c-2 -22 -7 -43 -10 -46 -8 -9 -36 5 -36 18 0 6 7 8 16 5 11 -4 15
-2 11 6 -5 14 9 58 18 58 3 0 4 -18 1 -41z m419 1 c-3 -5 -11 -10 -16 -10 -6
0 -7 5 -4 10 3 6 11 10 16 10 6 0 7 -4 4 -10z m145 -100 c0 -16 -2 -30 -4 -30
-2 0 -6 14 -8 30 -3 17 -1 30 4 30 4 0 8 -13 8 -30z m-170 10 c0 -5 -5 -10
-11 -10 -5 0 -7 5 -4 10 3 6 8 10 11 10 2 0 4 -4 4 -10z m164 -83 c3 3 6 1 6
-5 0 -7 -11 -12 -25 -12 -16 0 -25 6 -25 15 0 12 4 13 19 6 10 -6 21 -7 25 -4z
m-294 -97 c0 -22 -20 -26 -38 -8 -19 19 -14 28 13 28 18 0 25 -5 25 -20z
m-149 -116 l-7 -29 -7 34 c-8 37 1 62 14 39 4 -8 5 -28 0 -44z m46 -50 c-3 -3
-12 -4 -19 -1 -8 3 -5 6 6 6 11 1 17 -2 13 -5z m253 -79 c0 -8 -7 -15 -15 -15
-16 0 -20 12 -8 23 11 12 23 8 23 -8z m-30 -99 c0 -8 -4 -18 -10 -21 -5 -3
-10 3 -10 14 0 12 5 21 10 21 6 0 10 -6 10 -14z m-10 -87 c0 -4 -17 -7 -37 -7
-25 0 -31 3 -20 7 24 9 57 9 57 0z m-6 -114 c3 -44 3 -71 0 -60 -24 91 -33
138 -28 147 13 21 23 -10 28 -87z m13 -147 c-3 -8 -6 -5 -6 6 -1 11 2 17 5 13
3 -3 4 -12 1 -19z m-10 -100 c-2 -13 -4 -3 -4 22 0 25 2 35 4 23 2 -13 2 -33
0 -45z m-67 -142 c0 -3 -4 -8 -10 -11 -5 -3 -10 -1 -10 4 0 6 5 11 10 11 6 0
10 -2 10 -4z"/>
<path d="M6820 3335 c7 -8 17 -15 22 -15 6 0 5 7 -2 15 -7 8 -17 15 -22 15 -6
0 -5 -7 2 -15z"/>
<path d="M6866 3323 c-8 -20 9 -40 19 -22 6 8 4 10 -5 4 -9 -5 -10 -2 -5 14 8
25 0 29 -9 4z"/>
<path d="M6826 3294 c-4 -11 -2 -15 8 -11 7 3 19 0 26 -6 8 -8 8 -5 -1 11 -16
26 -25 28 -33 6z"/>
<path d="M6810 3260 c-12 -8 -9 -10 13 -10 16 0 26 4 22 10 -8 12 -16 12 -35
0z"/>
<path d="M6930 2920 c0 -5 5 -10 10 -10 6 0 10 5 10 10 0 6 -4 10 -10 10 -5 0
-10 -4 -10 -10z"/>
<path d="M6830 2710 c0 -5 5 -10 10 -10 6 0 10 5 10 10 0 6 -4 10 -10 10 -5 0
-10 -4 -10 -10z"/>
<path d="M3014 3948 c-66 -61 -87 -108 -88 -195 -1 -40 -4 -73 -7 -73 -7 0
-11 -14 -35 -146 -13 -74 -15 -120 -9 -237 8 -166 10 -169 85 -142 23 8 51 15
62 15 10 0 30 11 43 25 19 18 25 35 25 70 l0 45 60 -32 c45 -25 61 -39 66 -60
3 -16 9 -26 14 -23 20 13 20 -18 0 -35 -41 -36 -151 -39 -164 -5 -3 8 -11 15
-17 15 -22 0 23 -39 58 -51 48 -16 107 -6 147 25 l34 26 54 -19 c30 -10 73
-22 96 -26 l42 -7 0 39 c-1 120 -21 492 -30 550 -12 71 -37 138 -61 163 -8 8
-28 33 -44 55 -16 22 -31 42 -33 45 -2 2 -43 5 -92 5 -88 0 -99 -12 -18 -21
49 -4 82 -29 55 -40 -9 -3 -17 -15 -17 -26 0 -16 -5 -19 -25 -16 -13 3 -22 1
-19 -3 3 -5 13 -9 23 -9 11 0 41 -21 69 -47 44 -43 50 -53 55 -102 4 -30 4
-57 1 -60 -3 -3 -15 7 -27 22 -12 15 -38 32 -57 37 -41 12 -160 13 -177 2 -6
-4 21 -6 62 -4 103 6 142 -9 165 -62 10 -22 22 -58 25 -78 4 -21 12 -38 19
-38 6 0 4 -6 -5 -13 -9 -7 -19 -22 -23 -35 -4 -12 -15 -22 -24 -23 -11 0 -12
-3 -4 -6 6 -2 12 -9 12 -15 0 -6 -6 -8 -14 -5 -19 7 -32 -10 -41 -51 -4 -18
-9 -31 -12 -29 -2 3 -20 -5 -39 -18 -29 -20 -39 -22 -71 -13 -21 5 -45 15 -53
21 -27 20 -60 74 -60 96 0 12 -4 21 -10 21 -6 0 -8 -33 -6 -85 4 -90 -6 -113
-19 -42 -11 61 -14 217 -5 217 5 0 16 22 25 49 9 28 25 61 36 75 21 27 11 37
-11 11 -22 -26 -30 -17 -30 34 0 54 26 96 81 128 33 20 39 55 12 75 -20 15
-29 48 -13 48 5 0 10 5 10 10 0 22 -33 8 -76 -32z m327 -511 c-8 -8 -11 -5
-11 9 0 27 14 41 18 19 2 -9 -1 -22 -7 -28z m-43 -32 c-3 -3 -9 2 -12 12 -6
14 -5 15 5 6 7 -7 10 -15 7 -18z m40 -53 c-6 -33 -15 -59 -18 -57 -7 4 4 83
15 114 12 32 14 1 3 -57z"/>
<path d="M5910 3976 c0 -8 7 -17 16 -20 21 -8 65 4 58 16 -3 5 -12 7 -20 4 -7
-3 -16 -1 -19 4 -9 15 -35 12 -35 -4z"/>
<path d="M2225 3925 c-27 -9 -61 -36 -102 -81 -35 -38 -63 -73 -63 -79 0 -5 4
-4 9 3 6 10 10 6 15 -15 4 -15 9 -36 13 -47 4 -13 1 -17 -8 -12 -8 4 -6 1 4
-7 9 -8 17 -18 17 -22 0 -4 -6 -2 -14 4 -7 6 -21 9 -30 5 -13 -5 -15 -2 -9 12
6 17 5 17 -11 5 -9 -8 -15 -20 -12 -27 3 -8 1 -13 -3 -11 -5 1 -8 -2 -8 -8 2
-11 23 -11 51 1 14 5 17 4 12 -4 -4 -7 -14 -12 -22 -12 -8 0 -14 -4 -14 -10 0
-5 9 -10 20 -10 32 0 23 -18 -17 -37 -20 -10 -38 -23 -40 -29 -4 -13 58 -38
66 -27 11 15 41 14 41 -1 0 -9 9 -20 20 -26 15 -8 18 -15 11 -28 -6 -11 -4
-20 7 -28 15 -11 15 -20 4 -84 -15 -86 -35 -118 -115 -176 -56 -42 -68 -56
-28 -34 16 8 20 1 33 -63 9 -40 14 -96 12 -126 -3 -43 0 -57 14 -67 9 -7 20
-14 23 -14 11 0 -2 85 -14 92 -9 6 -9 10 0 16 10 6 10 16 1 44 -15 48 -8 62
41 78 41 13 47 30 10 30 -10 0 -19 4 -19 9 0 5 -10 7 -22 3 l-21 -5 20 20 c13
13 31 19 47 18 14 -2 26 1 26 6 0 5 -4 9 -9 9 -4 0 -6 12 -3 28 l5 27 12 -27
c10 -25 11 -23 11 25 0 49 23 111 49 129 6 4 9 45 8 94 -3 79 -5 89 -32 119
-33 38 -50 103 -29 116 10 7 10 9 1 9 -26 0 -12 20 15 21 24 2 24 2 4 6 -13 3
-29 -1 -37 -7 -9 -7 -15 -8 -20 0 -3 5 1 10 9 10 9 0 16 4 16 9 0 12 48 5 67
-11 12 -9 15 -9 9 0 -5 8 -1 12 10 12 16 0 15 2 -2 22 -18 20 -18 21 -1 15 13
-5 17 -3 15 5 -3 7 -21 16 -41 21 l-36 9 14 34 c17 41 35 61 67 73 37 15 -3
12 -47 -4z m-18 -141 c-3 -3 -12 -4 -19 -1 -8 3 -5 6 6 6 11 1 17 -2 13 -5z
m23 -338 c0 -7 -9 -12 -20 -11 -24 2 -34 10 -26 23 8 13 46 3 46 -12z"/>
<path d="M2380 3910 c25 -27 44 -76 34 -91 -2 -4 -20 -10 -39 -13 -32 -6 -50
-26 -23 -26 9 0 9 -3 0 -12 -15 -15 -16 -32 -2 -23 6 3 10 2 10 -3 0 -14 -34
-25 -38 -13 -2 6 -8 9 -13 6 -5 -4 0 -16 12 -28 19 -20 19 -22 3 -34 -16 -12
-16 -13 4 -13 12 0 22 4 22 10 0 13 32 0 47 -19 20 -26 14 -36 -7 -13 -21 22
-36 30 -25 13 3 -6 -14 -14 -37 -19 -41 -9 -41 -10 -10 -11 17 -1 32 -6 32
-13 0 -6 8 -4 19 6 18 16 20 16 28 1 8 -14 11 -12 21 10 7 15 8 25 2 25 -6 0
-3 12 7 27 l17 26 -39 -6 c-46 -7 -80 7 -55 22 8 5 18 7 24 4 5 -4 7 0 4 8 -4
10 1 15 13 15 12 0 15 -4 9 -11 -6 -7 -2 -11 12 -12 12 -1 25 -8 29 -15 15
-25 -16 -118 -40 -118 -5 0 -23 -13 -39 -30 -22 -21 -40 -30 -64 -30 l-33 -1
25 -19 c14 -11 30 -24 37 -30 7 -5 16 -10 21 -10 4 0 23 -15 41 -34 26 -27 43
-35 77 -38 24 -2 44 -3 44 -2 0 18 -35 92 -42 88 -6 -4 -7 8 -4 32 8 50 13 53
25 13 9 -32 9 -33 10 -7 1 15 7 47 15 70 8 24 17 59 20 78 l6 35 -21 -40 -20
-40 7 55 c4 30 8 62 9 70 0 9 4 20 8 27 10 15 -3 70 -18 83 -11 9 -12 6 -8
-12 5 -19 1 -18 -20 10 -16 22 -27 29 -30 20 -4 -8 -6 -7 -6 5 -1 17 -55 57
-78 57 -6 0 1 -13 17 -30z m80 -180 c18 -12 2 -12 -25 0 -13 6 -15 9 -5 9 8 0
22 -4 30 -9z m27 -152 c-3 -8 -6 -5 -6 6 -1 11 2 17 5 13 3 -3 4 -12 1 -19z"/>
<path d="M3106 3829 c-33 -26 -35 -66 -3 -74 12 -3 45 -4 72 -2 43 3 52 8 65
31 14 26 14 28 -9 47 -31 26 -91 25 -125 -2z m74 -19 c0 -5 -7 -10 -16 -10 -8
0 -12 5 -9 10 3 6 10 10 16 10 5 0 9 -4 9 -10z"/>
<path d="M295 3821 c-11 -5 -23 -7 -27 -4 -11 6 -10 -2 3 -30 8 -17 22 -27 48
-31 20 -3 49 -13 65 -21 15 -8 38 -15 49 -15 20 0 20 1 5 17 -16 15 -16 18 -1
28 12 9 24 7 52 -7 72 -35 175 3 154 57 -5 14 -15 16 -62 10 -31 -3 -72 -11
-91 -17 -28 -8 -48 -6 -90 6 -59 18 -75 19 -105 7z"/>
<path d="M2274 3715 c-4 -8 -14 -15 -24 -15 -26 0 -34 -16 -13 -25 17 -6 53
25 53 46 0 14 -10 10 -16 -6z"/>
<path d="M5043 3713 c-7 -2 -13 -8 -13 -13 0 -10 38 -1 46 11 6 10 -13 11 -33
2z"/>
<path d="M4841 3701 c-9 -6 6 -10 45 -13 64 -5 84 0 63 13 -18 11 -90 11 -108
0z"/>
<path d="M414 3689 c22 -5 48 -17 58 -26 10 -9 18 -13 18 -9 0 13 27 -20 34
-41 5 -16 2 -23 -14 -28 -11 -3 -20 -14 -20 -23 0 -15 -2 -15 -10 -2 -8 12
-10 11 -10 -7 0 -13 5 -23 10 -23 6 0 10 -7 10 -15 0 -18 20 -20 20 -2 0 7 5
5 10 -5 8 -13 16 -15 41 -8 l31 9 -7 -36 c-8 -44 -36 -76 -58 -67 -10 3 -17 2
-17 -3 0 -14 -100 -16 -116 -3 -9 8 -19 8 -34 0 -18 -10 -22 -7 -35 24 -8 20
-15 50 -15 68 1 30 2 31 14 16 17 -24 81 -25 72 -2 -3 8 -2 12 4 9 6 -3 10
-13 10 -22 0 -24 27 2 35 35 7 30 -14 52 -52 52 -13 0 -23 5 -23 10 0 6 -12 3
-26 -6 -17 -12 -21 -19 -14 -24 9 -6 9 -9 1 -14 -6 -4 -14 1 -18 10 -4 10 -2
19 5 22 6 2 9 9 6 17 -6 14 22 76 40 87 7 5 8 8 0 8 -19 0 -68 -72 -72 -104
-4 -46 -10 -56 -28 -56 -13 0 -14 3 -4 15 9 10 9 15 1 15 -16 0 -14 29 4 47 9
8 14 17 11 20 -8 8 -55 -29 -62 -49 -7 -24 4 -38 15 -19 5 8 11 9 15 3 3 -5
-4 -18 -15 -28 -18 -16 -20 -26 -14 -76 6 -46 4 -61 -9 -73 -9 -9 -16 -23 -16
-31 0 -8 -4 -14 -10 -14 -13 0 -13 -57 -1 -65 5 -3 11 3 13 12 3 17 4 17 11 0
5 -13 0 -20 -16 -27 -43 -19 -82 -49 -73 -57 1 -2 20 6 41 17 22 11 49 20 61
20 28 0 54 -30 54 -62 0 -17 7 -27 20 -31 11 -3 20 -1 20 4 0 5 -5 9 -11 9 -5
0 -7 5 -4 10 5 8 11 7 21 -1 17 -14 19 -39 3 -39 -6 0 -9 -6 -6 -12 2 -7 14
-12 25 -10 17 2 22 -2 22 -17 0 -15 -6 -20 -22 -18 -38 4 -35 -30 4 -39 18 -5
38 -9 43 -9 6 0 13 -4 18 -10 4 -6 13 -3 21 8 8 10 20 17 28 16 45 -6 47 2 9
36 -21 19 -45 35 -53 35 -8 0 -23 7 -34 16 -19 15 -18 15 4 11 19 -4 22 -1 22
25 0 16 4 27 10 23 5 -3 27 12 49 34 22 22 46 38 53 35 7 -2 21 -22 31 -43 14
-31 27 -42 65 -55 62 -23 122 -54 148 -78 12 -11 24 -16 26 -11 5 10 -36 95
-43 89 -3 -3 -17 13 -32 36 -25 38 -27 40 -29 18 0 -14 -1 -31 -1 -37 1 -7 -3
-13 -8 -13 -19 0 -13 58 12 134 21 63 20 76 -4 51 -25 -24 -28 -18 -10 20 9
19 20 32 25 29 15 -10 -4 80 -29 133 -14 28 -31 54 -39 57 -9 3 -12 11 -8 17
4 8 3 9 -4 5 -7 -4 -22 3 -34 14 -37 35 -135 80 -170 79 l-33 -1 39 -9z m246
-195 c0 -14 -4 -23 -10 -19 -5 3 -10 15 -10 26 0 10 5 19 10 19 6 0 10 -12 10
-26z m-120 -121 c0 -13 -34 -61 -50 -71 -24 -15 -81 1 -106 30 -14 16 -14 19
-2 10 20 -16 120 -12 125 5 3 7 -3 9 -16 6 -26 -7 -71 4 -71 17 0 6 25 10 60
9 33 -1 60 -4 60 -6z m-139 -20 c13 -17 13 -17 -6 -3 -11 8 -22 16 -24 17 -2
2 0 3 6 3 6 0 17 -8 24 -17z"/>
<path d="M6113 3674 c-1 -13 -3 -36 -4 -51 -1 -16 -4 -22 -7 -15 -3 10 -13 5
-34 -15 -25 -24 -38 -28 -101 -31 -90 -4 -119 8 -193 78 l-56 54 -42 -22 c-22
-12 -47 -22 -53 -22 -7 0 -13 -4 -13 -10 0 -5 4 -10 10 -10 13 0 30 -68 29
-120 0 -25 -3 -39 -6 -32 -8 20 -23 14 -24 -10 0 -22 -1 -22 -9 -3 -5 11 -9
15 -9 8 -1 -15 -31 -6 -47 14 -10 11 -16 8 -36 -18 -23 -28 -24 -35 -15 -78 8
-35 6 -72 -8 -158 -10 -62 -22 -113 -27 -113 -15 0 -8 -30 12 -50 24 -24 25
-52 4 -170 -8 -50 -12 -95 -9 -100 4 -6 -1 -7 -12 -3 -15 6 -16 4 -5 -9 7 -9
12 -29 11 -44 0 -16 3 -40 7 -53 4 -15 3 -22 -2 -18 -6 3 -8 -9 -5 -31 3 -22
6 -29 8 -17 2 11 18 62 34 113 17 51 28 98 26 105 -3 7 -6 4 -6 -5 -1 -10 -5
-18 -11 -18 -11 0 -12 101 -1 140 4 14 14 25 22 24 8 -1 15 9 15 22 2 33 36
105 48 101 7 -2 11 -88 11 -255 0 -139 3 -252 8 -252 4 0 7 -7 7 -15 0 -28 43
-33 280 -30 253 2 285 8 297 53 4 18 8 20 14 10 5 -8 9 25 9 80 0 60 -4 92
-11 92 -7 0 -10 -15 -7 -39 2 -24 -1 -37 -7 -34 -6 2 -9 19 -7 38 3 21 0 35
-7 35 -7 0 -11 25 -11 68 0 66 -9 97 -26 90 -5 -1 -10 7 -12 18 -2 12 -12 24
-23 27 -20 5 -27 -9 -7 -15 6 -2 8 -10 4 -16 -5 -9 -11 -8 -22 3 -9 8 -33 15
-54 15 -27 0 -40 5 -45 18 -6 16 -7 16 -21 -2 -14 -19 -14 -19 -14 3 0 20 -2
21 -15 11 -13 -10 -15 -9 -15 10 0 19 -2 20 -15 10 -11 -9 -22 -9 -45 -1 -17
5 -37 8 -45 4 -11 -4 -13 -1 -9 11 4 11 1 16 -10 16 -9 0 -16 7 -16 15 0 18
-16 20 -23 3 -4 -10 -6 -10 -6 0 -1 7 -16 12 -41 12 -22 0 -40 5 -40 11 0 5
-4 7 -10 4 -5 -3 -10 -1 -10 5 0 7 -7 10 -15 6 -12 -4 -15 3 -15 32 0 69 13
142 24 141 22 -3 36 1 36 10 0 5 -11 8 -25 5 -29 -5 -30 -2 -11 34 12 23 17
46 31 137 1 6 3 27 3 48 1 24 7 37 16 37 8 0 16 6 19 14 7 19 68 11 114 -15
20 -11 45 -18 55 -16 10 3 16 2 13 -3 -3 -4 14 -10 37 -12 56 -5 137 24 170
61 16 17 28 26 28 21 0 -6 4 -9 9 -5 5 3 12 1 16 -5 3 -5 14 -10 24 -10 38 0
82 -139 75 -241 -3 -51 -1 -68 5 -54 5 11 10 29 10 41 1 12 10 31 21 44 25 29
25 29 -9 68 -16 18 -32 49 -36 70 -14 82 -26 114 -40 108 -8 -3 -12 0 -10 7 3
7 -16 24 -43 38 l-47 26 -2 -23z m-504 -301 c20 -20 18 -83 -3 -83 -6 0 -6 -4
3 -9 18 -11 6 -83 -20 -113 l-18 -23 -1 30 -2 30 -13 -35 c-10 -27 -14 -31
-19 -19 -20 47 -3 188 27 227 13 16 24 15 46 -5z m471 -412 c0 -12 -20 -25
-27 -18 -7 7 6 27 18 27 5 0 9 -4 9 -9z m90 -81 c0 -5 -2 -10 -4 -10 -3 0 -8
5 -11 10 -3 6 -1 10 4 10 6 0 11 -4 11 -10z"/>
<path d="M5605 3350 c-3 -5 -1 -10 4 -10 6 0 11 5 11 10 0 6 -2 10 -4 10 -3 0
-8 -4 -11 -10z"/>
<path d="M5037 3676 c-22 -17 -12 -46 15 -46 11 0 16 4 12 11 -3 6 -1 15 6 19
7 4 9 13 6 19 -9 14 -17 14 -39 -3z"/>
<path d="M4841 3666 c-10 -11 -7 -17 11 -30 21 -15 79 -23 65 -9 -4 3 -2 12 4
19 6 7 8 18 4 24 -9 15 -71 12 -84 -4z"/>
<path d="M630 3648 c0 -22 39 -88 53 -88 12 0 8 12 -10 32 -15 17 -15 18 1 18
16 0 15 3 -4 30 -25 35 -40 38 -40 8z"/>
<path d="M1173 3660 c-13 -5 -23 -12 -23 -15 0 -10 27 -5 46 10 21 16 11 18
-23 5z"/>
<path d="M1051 3607 c-12 -7 -32 -27 -43 -46 l-21 -33 31 16 c40 20 42 20 42
-4 0 -11 7 -20 15 -20 20 0 19 -19 0 -27 -9 -3 -22 2 -30 13 -23 31 -50 6 -50
-44 0 -44 -26 -75 -56 -66 -11 3 -19 -6 -26 -31 -7 -20 -7 -37 -2 -41 14 -9
10 -41 -6 -48 -17 -6 -19 -15 -6 -35 16 -26 41 5 34 41 -5 27 -4 30 14 24 14
-4 23 -1 27 9 3 8 14 15 25 15 10 0 21 7 25 15 6 16 46 21 46 6 0 -6 -11 -22
-25 -37 -29 -31 -34 -81 -9 -91 19 -7 78 51 94 92 7 19 16 26 29 22 14 -3 17
0 13 19 -2 13 -14 25 -28 28 -21 6 -24 12 -26 59 -2 92 -4 101 -25 139 -18 33
-22 35 -42 25z m39 -149 c0 -7 -12 -21 -26 -32 -32 -23 -50 -9 -28 22 16 24
54 30 54 10z"/>
<path d="M1542 3588 c2 -15 -3 -24 -14 -26 -13 -2 -18 3 -18 17 0 24 -23 27
-59 7 -17 -10 -34 -11 -55 -5 -20 6 -32 5 -34 -1 -2 -5 -11 -10 -19 -10 -8 0
-33 -18 -55 -40 -43 -45 -62 -45 -45 -1 12 32 -2 61 -30 61 -18 0 -53 -82 -46
-109 3 -12 0 -27 -6 -35 -6 -7 -9 -20 -5 -29 5 -14 9 -13 35 1 28 16 30 16 41
-3 6 -10 25 -31 41 -47 25 -22 28 -29 18 -42 -7 -8 -20 -18 -29 -21 -10 -3
-25 -18 -34 -35 -18 -32 -38 -40 -38 -15 0 8 11 22 25 31 27 18 34 58 11 67
-26 10 -56 -35 -56 -87 0 -26 -5 -67 -11 -92 -11 -42 -14 -45 -37 -39 -15 4
-31 0 -41 -9 -14 -13 -23 -12 -76 6 -63 21 -91 38 -63 38 22 0 39 23 29 39
-11 17 -47 9 -43 -10 2 -8 -8 -1 -23 15 -22 25 -25 26 -25 10 0 -11 -5 -25
-12 -32 -9 -9 -7 -13 5 -18 9 -3 17 -14 17 -24 0 -11 9 -35 21 -54 18 -31 20
-45 14 -98 -9 -87 -21 -120 -55 -153 -25 -24 -28 -33 -25 -74 18 -201 28 -326
30 -384 1 -38 7 -73 14 -80 6 -6 11 -22 11 -34 0 -39 57 -133 80 -133 4 0 5
31 2 69 -2 37 0 76 5 86 9 16 12 15 24 -10 8 -16 20 -31 28 -33 24 -8 3 80
-41 175 -15 31 -4 161 22 268 15 60 22 119 22 178 0 81 2 93 26 127 23 33 31
37 56 33 20 -4 31 -1 38 10 13 24 37 22 31 -3 -3 -10 -10 -18 -15 -17 -6 1
-13 -4 -15 -10 -3 -8 4 -13 16 -13 25 0 28 -28 5 -37 -11 -4 -23 2 -34 16 -9
13 -25 22 -35 20 -26 -6 -30 -25 -5 -32 27 -7 26 -25 -2 -29 -19 -2 -24 -10
-26 -45 -4 -49 9 -55 34 -17 13 19 23 24 40 20 52 -13 129 50 93 76 -10 7 -6
8 14 5 32 -5 36 10 5 22 -13 5 -17 10 -10 15 6 3 13 2 17 -4 12 -20 35 -9 84
40 28 28 54 50 60 50 21 0 22 -22 2 -54 -18 -29 -19 -35 -6 -46 11 -9 12 -16
2 -31 -10 -17 -9 -22 5 -30 9 -5 15 -16 12 -23 -7 -18 37 -59 49 -47 6 6 17 7
27 1 14 -8 17 -19 13 -54 -5 -37 -2 -46 15 -55 11 -6 23 -24 27 -41 5 -25 2
-34 -17 -50 -16 -13 -20 -22 -12 -30 14 -14 42 -3 49 21 8 24 24 24 40 2 11
-15 15 -15 29 -4 14 12 16 10 16 -13 0 -26 13 -35 25 -15 4 6 13 8 21 5 20 -8
18 28 -3 45 -9 8 -23 13 -32 11 -9 -1 -21 9 -28 25 -14 31 -6 79 20 130 18 34
25 92 8 63 -5 -8 -17 -40 -27 -70 -26 -82 -38 -93 -44 -40 -3 24 -11 45 -18
48 -10 3 -13 -5 -10 -29 2 -25 -1 -34 -12 -34 -25 0 -25 79 -1 114 19 26 19
30 5 35 -9 4 -31 1 -50 -6 -39 -14 -68 3 -59 33 4 10 2 26 -3 36 -8 13 -4 24
14 45 13 16 26 28 29 28 3 -1 19 7 35 17 31 18 40 43 16 43 -39 0 -44 63 -6
75 16 5 17 10 8 31 -13 27 -39 31 -58 9 -7 -8 -23 -15 -36 -15 -12 0 -26 -4
-29 -10 -3 -5 -15 -10 -26 -10 -10 0 -19 -3 -19 -8 0 -16 -79 -42 -110 -36
-37 8 -38 27 -4 61 l25 25 23 -21 c23 -21 66 -29 66 -11 0 5 23 21 50 35 55
28 61 39 29 55 -19 10 -19 13 -6 34 11 16 12 27 5 40 -9 16 -13 15 -44 -15
-30 -29 -37 -32 -54 -21 -11 6 -29 12 -41 12 -14 0 -19 5 -17 18 4 17 20 20
48 8 21 -9 53 16 45 34 -3 9 -15 20 -27 25 -30 14 -33 30 -8 55 16 16 28 20
50 15 19 -4 37 -1 54 10 27 18 58 9 70 -20 3 -9 18 -15 36 -15 23 0 30 4 30
19 0 11 3 26 6 34 3 10 -5 18 -25 25 -17 6 -31 18 -31 26 0 9 -5 16 -11 16 -5
0 -9 -10 -7 -22z m-220 -148 c-3 -31 -16 -44 -36 -37 -13 5 -13 12 -4 37 13
38 45 38 40 0z m-117 -279 c-3 -6 -11 -11 -16 -11 -5 0 -4 6 3 14 14 16 24 13
13 -3z m56 -81 c29 0 30 -16 2 -41 l-26 -24 19 29 c14 22 15 28 4 24 -15 -5
-40 13 -40 28 0 5 5 3 12 -4 7 -7 20 -12 29 -12z m-301 -176 c0 -16 -16 -19
-25 -4 -8 13 4 32 16 25 5 -4 9 -13 9 -21z m-25 -24 c3 -5 1 -10 -4 -10 -6 0
-11 5 -11 10 0 6 2 10 4 10 3 0 8 -4 11 -10z"/>
<path d="M1628 3603 c7 -3 16 -2 19 1 4 3 -2 6 -13 5 -11 0 -14 -3 -6 -6z"/>
<path d="M1661 3593 c-2 -20 11 -43 20 -37 5 3 9 1 9 -5 0 -5 -10 -11 -22 -13
-21 -3 -19 -5 14 -25 22 -13 36 -28 33 -35 -7 -18 19 -53 33 -44 19 11 14 44
-9 67 -23 23 -21 33 4 23 17 -6 33 -80 24 -113 -4 -16 0 -18 18 -15 17 3 25
-2 30 -19 6 -18 8 -19 12 -5 6 24 -16 100 -27 93 -6 -3 -7 1 -4 9 7 18 -17 64
-48 93 -23 22 -42 25 -65 10 -7 -4 -13 0 -16 10 -3 10 -5 13 -6 6z"/>
<path d="M2522 3580 c0 -14 2 -19 5 -12 2 6 2 18 0 25 -3 6 -5 1 -5 -13z"/>
<path d="M3089 3575 c25 -8 47 -13 49 -10 10 10 -7 17 -50 21 l-43 4 44 -15z"/>
<path d="M3224 3580 c-12 -4 -24 -16 -28 -26 -5 -13 -3 -14 6 -7 19 15 70 22
93 13 15 -6 8 -8 -23 -8 -39 0 -72 -14 -72 -32 0 -11 88 -11 95 0 3 5 11 10
16 10 6 0 7 -5 3 -12 -4 -7 -3 -8 4 -4 13 8 -2 56 -21 68 -15 10 -46 9 -73 -2z"/>
<path d="M3050 3550 c-13 -9 -12 -12 4 -25 23 -17 42 -19 51 -5 4 6 11 8 16 5
5 -4 9 0 9 8 0 23 -54 34 -80 17z"/>
<path d="M695 3530 c4 -14 12 -29 17 -35 7 -7 8 -2 3 15 -4 14 -12 30 -17 35
-7 7 -8 2 -3 -15z"/>
<path d="M2991 3514 c0 -11 3 -14 6 -6 3 7 2 16 -1 19 -3 4 -6 -2 -5 -13z"/>
<path d="M4925 3520 c-26 -7 -23 -8 16 -6 26 0 45 4 42 9 -5 8 -16 8 -58 -3z"/>
<path d="M5026 3452 c-4 -13 -19 -27 -33 -33 -23 -8 -25 -14 -20 -45 7 -44 7
-44 49 -50 l35 -6 -5 58 c-3 33 -8 68 -12 79 -7 19 -7 19 -14 -3z"/>
<path d="M2511 3440 c-1 -30 8 -44 31 -53 12 -4 15 -2 11 9 -3 8 -8 12 -11 9
-4 -3 -12 9 -18 27 -11 30 -13 31 -13 8z"/>
<path d="M3178 3443 c7 -3 16 -2 19 1 4 3 -2 6 -13 5 -11 0 -14 -3 -6 -6z"/>
<path d="M413 3425 c5 -14 53 -18 73 -7 13 8 7 11 -29 13 -29 3 -46 0 -44 -6z"/>
<path d="M4870 3420 c23 -18 80 -28 80 -14 0 8 -67 34 -87 34 -15 0 -14 -4 7
-20z"/>
<path d="M3175 3410 c-27 -4 -39 -8 -25 -9 14 -1 32 -6 40 -11 12 -7 8 -10
-15 -10 -23 0 -26 -3 -15 -10 10 -6 24 -4 44 8 28 16 48 44 29 40 -4 0 -30 -4
-58 -8z"/>
<path d="M7770 3405 c0 -8 2 -15 4 -15 2 0 6 7 10 15 3 8 1 15 -4 15 -6 0 -10
-7 -10 -15z"/>
<path d="M5950 3335 c0 -58 2 -65 19 -65 11 0 23 5 26 10 3 6 -1 10 -9 10 -13
0 -16 12 -16 55 0 30 -4 55 -10 55 -6 0 -10 -28 -10 -65z"/>
<path d="M6010 3335 c0 -37 4 -65 10 -65 6 0 10 28 10 65 0 37 -4 65 -10 65
-6 0 -10 -28 -10 -65z"/>
<path d="M6056 3384 c-3 -9 -6 -38 -6 -65 0 -49 1 -50 27 -47 25 3 29 8 35 53
7 53 -2 75 -32 75 -10 0 -21 -7 -24 -16z m31 -26 c-3 -8 -6 -5 -6 6 -1 11 2
17 5 13 3 -3 4 -12 1 -19z m3 -53 c0 -8 -4 -15 -10 -15 -5 0 -10 7 -10 15 0 8
5 15 10 15 6 0 10 -7 10 -15z"/>
<path d="M7790 3391 c0 -5 -10 -11 -23 -15 -37 -9 -84 -63 -95 -109 -22 -88
-23 -171 -4 -295 10 -68 14 -126 9 -129 -4 -3 -1 -13 8 -23 11 -12 14 -26 10
-39 -8 -26 3 -26 35 -2 20 16 22 22 11 35 -15 17 -11 58 5 63 7 2 11 -3 10
-11 0 -8 3 -14 8 -13 5 1 10 28 12 60 3 51 0 59 -21 73 -13 8 -26 23 -30 32
-9 22 -33 112 -39 147 -4 23 -3 25 10 14 13 -10 17 -10 26 2 8 11 9 11 4 -3
-4 -13 0 -18 14 -18 11 0 20 7 20 15 0 8 5 15 10 15 6 0 10 4 10 10 0 16 -46
23 -69 10 -13 -7 -21 -7 -21 -1 0 17 33 29 70 24 33 -4 34 -3 16 11 -11 9 -32
16 -48 16 -22 0 -28 5 -28 21 0 33 37 76 75 89 32 11 48 30 25 30 -5 0 -10 -4
-10 -9z"/>
<path d="M2422 3369 c-38 -25 -37 -34 2 -19 15 5 32 8 37 5 5 -4 6 1 3 10 -5
11 -2 14 12 8 12 -4 15 -3 10 5 -10 17 -26 15 -64 -9z"/>
<path d="M5876 3329 c-7 -69 -1 -84 20 -54 13 17 16 18 24 5 17 -28 21 -2 7
51 -20 79 -42 78 -51 -2z"/>
<path d="M6135 3346 c-4 -24 -5 -52 -3 -62 5 -28 36 -30 47 -2 14 38 20 98 11
98 -5 0 -12 -22 -16 -50 -9 -70 -28 -65 -21 5 7 65 -9 75 -18 11z"/>
<path d="M2530 3370 c0 -6 7 -10 15 -10 8 0 15 2 15 4 0 2 -7 6 -15 10 -8 3
-15 1 -15 -4z"/>
<path d="M3652 3348 c-55 -93 -131 -257 -121 -263 6 -4 12 -5 13 -4 7 8 66
137 66 144 0 4 9 18 20 32 11 14 17 29 14 34 -3 5 2 9 11 9 11 0 15 5 11 15
-4 10 1 15 15 15 17 0 19 -4 13 -22 -4 -13 -7 -30 -8 -39 -1 -8 -8 -22 -16
-31 -8 -8 -35 -53 -59 -101 l-44 -86 22 -53 c29 -68 140 -290 151 -302 14 -14
5 15 -23 78 -15 32 -27 61 -27 63 0 2 -19 36 -41 74 -23 38 -41 80 -41 93 0
13 29 71 66 129 36 58 66 111 66 117 0 17 -54 130 -62 130 -3 0 -15 -15 -26
-32z"/>
<path d="M5809 3353 c0 -28 -1 -28 -11 -5 -11 23 -32 29 -42 13 -5 -7 12 -107
19 -119 1 -1 15 3 31 9 16 7 35 11 43 10 11 -2 13 7 7 45 -3 26 -6 53 -6 60 0
8 -9 14 -20 14 -15 0 -20 -7 -21 -27z"/>
<path d="M7867 3360 c37 -16 83 -68 83 -92 0 -4 -17 -8 -37 -10 -20 -2 -38 -9
-41 -16 -3 -9 3 -10 23 -2 35 13 41 13 59 -6 12 -11 16 -36 16 -93 0 -65 -4
-84 -23 -112 -24 -36 -61 -58 -117 -70 l-35 -8 40 3 c22 1 48 6 58 10 14 7 17
3 17 -30 0 -46 7 -59 36 -68 22 -7 39 -52 23 -62 -5 -3 -9 0 -9 6 0 18 -61 1
-88 -23 -34 -32 -82 -135 -81 -176 0 -33 2 -30 18 25 15 54 55 134 67 134 3 0
-3 -15 -11 -32 l-16 -33 25 28 c15 15 26 37 26 48 0 11 5 17 10 14 7 -4 7 -12
0 -25 -7 -12 -7 -26 0 -42 10 -22 10 -22 5 4 -3 17 1 32 11 42 8 9 12 21 8 27
-4 8 -1 8 13 1 13 -7 25 -7 38 1 18 9 19 9 6 -6 -8 -10 -9 -17 -3 -17 6 0 14
5 17 10 3 6 17 10 30 10 13 0 27 -4 30 -10 5 -9 45 -15 45 -7 0 10 -42 87 -50
92 -16 10 -12 -25 5 -41 8 -9 15 -23 14 -32 0 -11 -2 -12 -6 -4 -2 6 -11 12
-18 12 -8 0 -17 5 -21 12 -5 7 -3 8 6 3 22 -13 1 38 -26 62 -27 25 -31 58 -8
71 14 8 14 14 -1 66 -10 32 -17 93 -17 139 0 108 -30 170 -96 198 -58 25 -79
24 -25 -1z"/>
<path d="M3925 3336 c-11 -9 -26 -16 -33 -16 -20 0 -42 -26 -42 -48 0 -15 -5
-19 -20 -15 -11 3 -20 3 -20 0 0 -5 19 -52 25 -65 5 -9 65 33 71 50 3 12 21
35 38 52 17 17 30 30 27 29 -2 -2 -9 4 -15 12 -10 14 -13 14 -31 1z"/>
<path d="M2349 3310 c-13 -10 -20 -19 -16 -20 4 0 17 9 29 20 28 26 17 26 -13
0z"/>
<path d="M2438 3307 c-4 -9 -5 -31 -1 -48 4 -23 2 -30 -8 -28 -15 2 -33 -3
-86 -26 -24 -11 -31 -19 -26 -31 4 -12 3 -15 -5 -10 -7 4 -12 1 -12 -7 0 -8
-7 -20 -15 -27 -8 -7 -12 -17 -9 -22 8 -13 -15 -28 -33 -21 -18 7 -16 23 5 40
15 13 15 14 0 9 -11 -3 -15 -1 -12 8 3 7 -2 13 -11 13 -8 0 -15 -6 -15 -12 0
-7 -7 -18 -15 -25 -20 -17 -19 -29 3 -24 9 2 28 -5 42 -16 20 -16 22 -20 8
-20 -10 0 -18 -7 -18 -15 0 -18 -21 -20 -38 -3 -7 7 -12 8 -12 2 0 -5 9 -15
20 -21 17 -11 18 -17 8 -45 -6 -18 -19 -43 -29 -56 -10 -13 -15 -30 -12 -39 4
-9 -1 -21 -12 -29 -33 -25 7 -15 50 11 51 31 65 31 65 0 0 -14 5 -25 10 -25 6
0 10 8 10 17 0 14 2 15 13 4 10 -11 10 -14 0 -18 -7 -3 -13 -11 -13 -19 0 -28
-34 -10 -44 24 l-7 22 -39 -21 c-30 -17 -40 -29 -42 -52 -2 -18 -12 -36 -26
-45 -22 -15 -22 -14 -12 12 9 25 8 27 -10 21 -12 -4 -31 0 -45 9 -30 20 -41
21 -26 3 8 -11 5 -16 -14 -25 -14 -6 -25 -15 -25 -20 0 -27 40 -20 40 7 1 14
2 13 11 -2 8 -14 7 -23 -8 -39 -18 -20 -18 -21 6 -13 22 7 23 5 19 -28 -2 -20
-1 -35 3 -34 4 1 8 -2 9 -8 1 -5 9 -19 16 -30 22 -31 17 -47 -13 -43 -22 2
-29 9 -33 33 -4 25 -7 20 -21 -38 l-16 -67 32 0 c28 0 33 -4 43 -37 8 -25 22
-44 42 -55 19 -11 28 -22 24 -29 -5 -9 -11 -7 -20 6 -25 34 -26 7 -4 -62 22
-67 44 -97 65 -89 6 2 17 -5 23 -15 15 -23 10 -24 -28 -4 l-29 15 14 -47 c8
-27 15 -50 15 -52 0 -2 6 2 14 8 22 18 28 -4 12 -41 -4 -10 -3 -30 2 -45 l10
-28 17 40 c9 22 25 60 36 84 20 43 20 59 -1 46 -6 -3 -9 -14 -8 -22 4 -21 -38
-28 -46 -7 -4 11 -1 14 13 9 21 -6 39 24 20 35 -13 9 40 49 57 43 11 -4 34 38
34 62 0 8 -4 15 -10 15 -20 0 -9 28 13 34 16 4 30 24 51 71 15 36 31 65 35 66
66 8 71 6 93 -48 12 -29 24 -53 27 -53 10 0 -5 152 -17 183 -8 19 -18 27 -34
26 l-23 0 23 -9 c26 -11 29 -28 5 -37 -10 -4 -23 -14 -30 -22 -10 -15 -12 -15
-18 0 -7 18 -37 21 -47 5 -9 -14 -52 30 -43 44 3 6 -5 10 -19 10 -28 0 -27 -1
-27 95 0 70 0 71 21 72 23 2 24 -1 10 -27 -7 -13 -7 -21 0 -25 15 -10 12 -35
-5 -35 -8 0 -15 -7 -15 -16 0 -8 4 -13 9 -9 5 3 16 -4 23 -14 13 -19 68 -47
68 -35 0 11 -23 50 -44 72 -19 22 -20 24 -3 33 9 6 17 19 17 29 0 25 16 26 24
3 3 -10 10 -28 16 -41 7 -17 7 -21 -1 -16 -7 4 -10 1 -7 -7 3 -8 16 -13 30
-11 16 1 28 -4 32 -13 3 -8 10 -15 16 -15 16 0 12 27 -7 46 -10 9 -16 28 -15
41 2 15 -6 33 -25 51 -32 33 -33 74 -3 107 30 33 59 111 55 147 -3 18 -6 68
-9 112 -3 56 -9 83 -21 95 -16 15 -17 14 -10 -16 4 -18 4 -33 1 -33 -12 0 -31
48 -36 95 -3 34 -7 44 -12 32z m-11 -183 c-3 -3 -12 -4 -19 -1 -8 3 -5 6 6 6
11 1 17 -2 13 -5z m23 -124 c0 -13 -5 -18 -15 -14 -17 7 -19 -9 -4 -37 5 -11
15 -17 22 -13 7 4 0 -5 -15 -20 -15 -14 -29 -26 -31 -26 -10 0 -14 96 -6 112
13 25 49 23 49 -2z m-142 -8 c3 -9 -2 -13 -14 -10 -9 1 -19 9 -22 16 -3 9 2
13 14 10 9 -1 19 -9 22 -16z m77 8 c-3 -5 -15 -10 -25 -10 -10 0 -22 5 -25 10
-4 6 7 10 25 10 18 0 29 -4 25 -10z m-148 -42 c-3 -8 -6 -5 -6 6 -1 11 2 17 5
13 3 -3 4 -12 1 -19z m33 2 c0 -5 -5 -10 -11 -10 -5 0 -7 5 -4 10 3 6 8 10 11
10 2 0 4 -4 4 -10z m74 -104 c-3 -9 -10 -16 -15 -16 -6 0 -5 9 1 21 13 24 24
20 14 -5z m39 -70 c8 5 8 3 0 -6 -9 -10 -16 -10 -26 -2 -10 9 -18 8 -33 -3
-36 -27 -45 -16 -17 20 l28 35 18 -25 c10 -14 24 -22 30 -19z m-153 -6 c19
-16 29 -29 23 -30 -7 0 -13 5 -13 10 0 7 -6 7 -20 0 -16 -8 -20 -8 -20 4 0 7
-7 17 -16 20 -8 3 -12 10 -9 16 10 15 18 12 55 -20z m-140 -20 c0 -5 -4 -10
-10 -10 -5 0 -10 5 -10 10 0 6 5 10 10 10 6 0 10 -4 10 -10z m193 -66 c-16
-32 -17 -33 -30 -14 -19 26 -37 27 -23 1 5 -11 10 -30 10 -43 1 -35 23 -58 49
-51 32 8 25 -23 -10 -49 -22 -17 -30 -18 -49 -8 -12 6 -19 18 -16 25 3 8 -2
22 -12 31 -9 10 -17 24 -17 32 0 9 -5 17 -12 19 -7 3 -10 -4 -7 -19 2 -13 2
-17 -2 -10 -3 6 -12 12 -19 12 -16 0 -25 22 -25 66 0 21 4 33 10 29 6 -3 10
-14 10 -24 0 -29 23 -43 51 -31 23 10 23 10 2 6 -15 -3 -23 1 -23 9 0 22 11
45 22 45 6 0 7 -7 4 -16 -3 -9 -2 -12 5 -9 5 4 7 16 3 27 -4 15 -2 19 7 14 8
-3 22 -9 32 -12 9 -4 17 -11 17 -16 0 -5 5 -6 10 -3 8 5 8 11 1 19 -14 17 -2
29 15 15 10 -9 10 -17 -3 -45z m-133 -104 c0 -5 6 -7 14 -4 18 7 32 -34 17
-49 -8 -8 -15 -7 -25 3 -19 20 -30 60 -17 60 6 0 11 -4 11 -10z m0 -73 c0 -13
-5 -17 -14 -14 -8 3 -17 1 -19 -6 -2 -7 -10 1 -18 16 -11 24 -11 30 1 37 18
11 50 -10 50 -33z m159 -168 c-27 -21 -39 -24 -39 -9 0 6 6 10 13 10 8 0 14 7
14 15 0 8 -4 15 -8 15 -3 0 -9 9 -12 21 -4 15 -2 19 8 15 8 -3 18 0 22 7 5 8
11 0 17 -22 8 -29 7 -35 -15 -52z m7 -46 c-10 -10 -19 5 -10 18 6 11 8 11 12
0 2 -7 1 -15 -2 -18z"/>
<path d="M5700 3309 c0 -5 5 -7 10 -4 6 3 10 8 10 11 0 2 -4 4 -10 4 -5 0 -10
-5 -10 -11z"/>
<path d="M1885 3300 c-3 -5 -1 -10 4 -10 6 0 11 5 11 10 0 6 -2 10 -4 10 -3 0
-8 -4 -11 -10z"/>
<path d="M4802 3286 c-15 -33 -11 -44 7 -22 7 8 11 23 9 32 -2 14 -6 11 -16
-10z"/>
<path d="M2640 3171 c0 -116 7 -136 30 -85 26 58 33 104 15 104 -15 0 -30 34
-21 49 3 5 -1 11 -9 15 -13 4 -15 -9 -15 -83z"/>
<path d="M1600 3241 c0 -5 14 -14 30 -21 27 -11 30 -16 30 -61 0 -26 5 -51 10
-54 6 -3 10 0 10 8 0 7 14 40 30 72 17 32 30 60 30 62 0 2 -13 -3 -30 -12 -37
-19 -54 -19 -70 0 -14 16 -40 20 -40 6z"/>
<path d="M4370 3225 c-23 -25 -25 -32 -22 -118 2 -50 7 -113 13 -140 9 -52 1
-77 -27 -77 -15 0 -19 -12 -7 -23 3 -4 12 -2 19 4 19 15 32 -22 45 -125 7 -54
23 -106 45 -154 19 -41 34 -88 34 -105 1 -18 7 -45 14 -62 l13 -30 7 32 c4 17
3 48 -3 68 -8 31 -7 36 5 31 18 -7 18 9 -1 109 -9 44 -20 114 -26 155 -6 41
-24 113 -40 158 -22 63 -31 112 -37 194 l-7 110 -25 -27z m77 -477 c-3 -8 -6
-5 -6 6 -1 11 2 17 5 13 3 -3 4 -12 1 -19z m25 -83 c3 -13 1 -22 -3 -19 -9 5
-13 44 -5 44 2 0 6 -11 8 -25z m18 -70 c0 -5 -5 -3 -10 5 -5 8 -10 20 -10 25
0 6 5 3 10 -5 5 -8 10 -19 10 -25z m20 -36 c0 -6 -4 -7 -10 -4 -5 3 -10 11
-10 16 0 6 5 7 10 4 6 -3 10 -11 10 -16z"/>
<path d="M5083 3216 c-17 -18 -30 -42 -30 -52 2 -14 -4 -18 -21 -17 -32 4
-142 -72 -142 -97 0 -15 7 -20 24 -20 14 0 28 -5 31 -11 11 -16 -4 -59 -20
-59 -10 0 -15 -10 -15 -30 0 -24 -4 -30 -21 -30 -12 0 -23 8 -26 20 -4 15 -11
18 -28 14 -26 -6 -40 17 -27 44 6 11 2 30 -8 51 -15 31 -17 32 -23 12 -3 -14
-13 -21 -30 -21 -29 0 -42 24 -23 42 11 10 8 15 -12 25 -14 8 -26 12 -27 11
-2 -2 -12 -22 -23 -44 -17 -34 -20 -52 -15 -95 6 -48 7 -51 14 -26 4 16 5 36
2 44 -5 13 -2 15 15 11 12 -3 26 0 32 7 17 21 42 6 39 -24 -1 -14 1 -34 5 -43
10 -21 -2 -41 -19 -34 -7 2 -16 -2 -19 -10 -7 -19 -26 -18 -26 1 0 8 -4 15
-10 15 -5 0 -10 -11 -10 -25 0 -36 23 -115 33 -115 12 0 -1 -49 -17 -66 -8 -7
-16 -10 -20 -7 -3 4 -6 1 -6 -5 0 -5 -3 -18 -7 -28 -4 -12 -3 -15 6 -10 30 19
56 -45 29 -72 -9 -9 -7 -12 10 -12 16 0 22 -6 22 -24 0 -27 24 -53 35 -36 3 5
1 10 -5 10 -7 0 -9 8 -5 19 3 11 0 21 -9 24 -19 8 -20 137 -1 137 7 0 16 -7
19 -17 6 -14 8 -14 21 3 13 16 16 17 25 4 5 -8 9 -22 7 -30 -1 -8 7 -20 18
-25 26 -13 26 -38 0 -45 -16 -4 -20 -14 -21 -47 l0 -43 72 0 c57 0 73 3 78 16
4 11 14 15 31 11 21 -3 24 -1 20 13 -7 23 18 42 52 38 21 -2 31 -11 38 -33 6
-20 16 -29 26 -27 20 4 39 -19 50 -61 6 -22 7 -11 3 38 -2 39 -9 71 -14 73 -5
2 -7 16 -4 32 4 15 1 44 -5 62 -11 32 -14 34 -52 32 -22 -1 -46 -7 -52 -13
-15 -15 -32 -14 -47 3 -9 12 -7 18 9 33 12 9 21 23 21 29 0 6 10 18 22 26 20
14 21 16 7 31 -10 9 -25 14 -38 10 -22 -6 -54 13 -46 27 3 4 -9 10 -26 14 -35
7 -35 29 0 34 18 3 20 6 10 18 -6 7 -9 21 -5 29 7 19 40 19 56 0 8 -9 21 -13
36 -9 32 8 55 -12 48 -41 -3 -13 -1 -26 5 -29 7 -5 11 3 11 18 0 14 5 26 10
26 15 0 34 54 21 58 -6 2 -11 9 -11 16 0 7 -13 12 -32 12 -18 0 -41 4 -51 8
-13 6 -16 5 -11 -8 3 -9 2 -16 -2 -17 -5 0 -18 -2 -30 -3 -13 -2 -24 6 -31 21
-6 13 -7 23 -2 23 4 0 6 6 3 14 -3 7 2 16 10 19 18 7 46 -1 46 -13 0 -5 14 -2
31 7 27 14 28 16 13 27 -9 7 -14 18 -10 24 13 22 27 12 46 -31 18 -41 60 -90
60 -71 0 5 -20 45 -45 88 -44 77 -55 116 -35 116 6 0 10 8 10 17 0 9 7 25 17
35 9 10 12 18 6 18 -5 0 -24 -15 -40 -34z m-13 -106 c0 -5 -2 -10 -4 -10 -3 0
-8 5 -11 10 -3 6 -1 10 4 10 6 0 11 -4 11 -10z m-84 -14 c15 -16 20 -51 5 -41
-5 3 -12 1 -16 -5 -4 -6 -13 -4 -23 7 -12 12 -13 18 -4 21 6 2 12 10 12 18 0
18 8 18 26 0z m-160 -212 c-3 -6 1 -17 7 -23 8 -8 7 -11 -6 -11 -9 0 -17 -4
-17 -10 0 -5 -4 -10 -10 -10 -5 0 -10 6 -10 14 0 8 -4 16 -9 18 -5 2 -7 15 -4
29 4 24 7 25 29 15 13 -6 22 -16 20 -22z m-73 -82 c-5 -22 -43 -27 -43 -6 0 7
-3 20 -7 30 -4 11 -3 15 5 10 6 -3 13 -2 17 4 10 17 34 -15 28 -38z m110 14
c7 -18 -1 -26 -29 -26 -13 0 -28 -9 -34 -20 -8 -16 -8 -18 4 -14 11 4 13 0 9
-15 -3 -11 -9 -18 -14 -15 -5 3 -9 -3 -10 -13 0 -17 -1 -17 -8 0 -4 10 -10 18
-14 18 -4 -1 -6 1 -4 2 1 2 -4 11 -12 20 -12 15 -11 17 3 17 9 0 16 7 16 16 0
10 6 14 15 10 9 -3 19 3 25 14 12 23 45 27 53 6z m61 -23 c4 -5 12 -8 18 -8 6
0 12 -12 14 -26 2 -22 -1 -26 -27 -26 -17 0 -29 6 -29 14 0 7 -8 13 -17 13
-15 0 -14 2 3 19 21 22 27 24 38 14z m0 -99 c9 -8 16 -19 16 -24 0 -4 9 -6 20
-3 23 6 36 -18 25 -44 -5 -10 -7 -26 -6 -36 3 -25 -27 -33 -44 -11 -9 12 -14
14 -15 6 0 -24 -45 -9 -48 16 -2 12 -9 22 -17 22 -14 0 -27 25 -18 34 4 3 14
6 24 6 13 0 16 5 12 16 -3 9 0 20 8 25 19 12 25 11 43 -7z m214 -62 c2 -12 -1
-22 -7 -22 -6 0 -11 4 -11 9 0 5 -3 17 -7 27 -4 12 -2 15 8 12 8 -2 15 -14 17
-26z m2 -83 c0 -11 -4 -19 -9 -19 -16 0 -31 27 -25 44 8 21 34 2 34 -25z"/>
<path d="M1930 3230 c0 -5 5 -10 11 -10 5 0 7 5 4 10 -3 6 -8 10 -11 10 -2 0
-4 -4 -4 -10z"/>
<path d="M7885 3216 c-17 -12 -18 -15 -3 -30 23 -22 49 -21 41 2 -6 14 -4 15
9 5 14 -12 28 -8 28 7 0 6 -44 30 -54 30 -1 0 -11 -6 -21 -14z"/>
<path d="M150 3200 c0 -5 5 -10 10 -10 6 0 10 5 10 10 0 6 -4 10 -10 10 -5 0
-10 -4 -10 -10z"/>
<path d="M1776 3195 c-10 -7 -16 -18 -13 -22 3 -5 -3 -9 -14 -9 -10 0 -19 5
-19 11 -1 24 -19 -24 -25 -69 -6 -37 -5 -47 4 -41 10 5 11 -16 6 -91 -4 -55
-9 -105 -11 -113 -3 -8 32 -85 76 -172 61 -120 82 -173 88 -219 8 -56 28 -89
55 -90 8 0 -1 45 -15 73 -11 21 -3 37 18 37 12 0 14 7 10 28 -3 15 -8 81 -11
147 -8 145 -25 231 -60 308 -22 48 -26 69 -23 124 l3 66 -29 3 c-36 4 -42 10
-26 29 15 19 11 19 -14 0z m18 -52 c8 -19 -9 -33 -41 -33 -15 0 -23 -6 -23
-17 0 -9 -3 -13 -6 -10 -4 4 -1 20 6 36 10 26 21 34 51 40 4 0 10 -7 13 -16z"/>
<path d="M2220 3184 c0 -14 3 -15 18 -3 9 7 19 15 21 16 2 2 -5 3 -17 3 -14 0
-22 -6 -22 -16z"/>
<path d="M156 3169 c-14 -11 -26 -17 -26 -13 0 4 -9 -5 -20 -19 -27 -34 -18
-59 17 -46 13 5 41 9 61 10 20 0 31 3 25 6 -7 2 -13 9 -13 14 0 6 6 7 13 3 9
-6 8 -3 -1 8 -10 13 -11 22 -2 37 9 18 8 21 -8 21 -11 0 -31 -9 -46 -21z"/>
<path d="M6410 3170 c-12 -8 -10 -10 9 -10 20 0 21 -2 11 -15 -7 -8 -16 -12
-21 -9 -5 3 -9 2 -8 -3 4 -26 -3 -32 -30 -27 -32 7 -52 -12 -30 -27 17 -11 73
-3 77 11 2 6 10 10 17 10 7 0 16 8 19 17 5 13 9 14 19 4 9 -10 7 -16 -10 -31
-13 -10 -23 -23 -23 -28 0 -5 -7 -12 -15 -16 -8 -3 -15 -12 -15 -21 0 -8 -4
-15 -10 -15 -15 0 -12 -31 6 -51 16 -18 38 -16 61 7 7 6 9 14 6 18 -3 3 -2 11
4 18 5 7 15 32 23 56 13 40 33 61 23 24 -2 -10 2 -24 10 -30 12 -11 14 -8 13
16 -1 34 -31 82 -50 82 -8 0 -16 4 -18 9 -5 15 -51 22 -68 11z"/>
<path d="M4755 3150 c-21 -23 -9 -26 18 -6 10 8 14 17 9 20 -5 3 -17 -3 -27
-14z"/>
<path d="M5345 3137 c-44 -5 -82 -10 -83 -12 -2 -2 -1 -13 3 -24 5 -17 15 -21
48 -21 82 0 115 10 120 36 2 14 2 26 -2 27 -3 2 -42 -1 -86 -6z"/>
<path d="M8081 3111 c-16 -10 -10 -76 8 -94 19 -19 24 1 15 53 -7 39 -12 48
-23 41z"/>
<path d="M72 3074 c-9 -18 -8 -25 8 -39 10 -9 24 -14 31 -9 7 4 18 -1 26 -12
12 -16 15 -17 23 -4 15 23 6 35 -30 40 -21 3 -36 12 -40 25 -7 19 -7 19 -18
-1z"/>
<path d="M2160 3080 c0 -13 18 -22 24 -11 3 5 -1 11 -9 15 -8 3 -15 1 -15 -4z"/>
<path d="M4316 3072 c-3 -10 -19 -26 -36 -35 -16 -10 -29 -26 -29 -35 1 -15 2
-15 6 1 4 16 6 15 24 -5 15 -19 20 -20 28 -9 5 7 14 10 20 7 7 -5 11 7 11 38
0 47 -14 69 -24 38z"/>
<path d="M621 3030 c-1 -14 6 -36 15 -48 9 -13 13 -26 10 -29 -3 -3 4 -17 14
-31 26 -32 25 -45 -2 -38 l-23 6 23 -11 c16 -9 22 -21 22 -46 0 -27 -5 -35
-27 -44 -25 -9 -26 -12 -11 -23 12 -9 14 -16 6 -29 -5 -10 -14 -14 -20 -11 -7
5 -8 2 -3 -5 5 -9 17 -4 41 20 19 18 35 31 37 28 15 -19 47 -237 51 -339 5
-130 21 -224 37 -214 5 3 7 15 4 27 -8 34 -15 102 -21 210 -4 72 -2 102 7 113
10 12 10 17 1 23 -7 4 -10 15 -7 24 4 9 -2 24 -13 35 -21 21 -47 172 -43 254
1 26 -3 57 -10 69 -14 27 -49 58 -66 59 -6 0 -14 6 -16 13 -3 6 -6 1 -6 -13z"/>
<path d="M2117 3039 c7 -7 15 -10 18 -7 3 3 -2 9 -12 12 -14 6 -15 5 -6 -5z"/>
<path d="M3388 3020 c-12 -39 -10 -76 3 -63 6 6 9 28 7 49 -3 35 -4 36 -10 14z"/>
<path d="M237 3023 c-4 -3 -7 -11 -7 -17 0 -6 5 -5 12 2 6 6 9 14 7 17 -3 3
-9 2 -12 -2z"/>
<path d="M496 3016 c3 -9 10 -16 15 -16 5 0 23 -13 41 -30 34 -33 54 -39 39
-12 -13 24 -50 62 -61 62 -4 0 -16 3 -24 6 -12 5 -15 2 -10 -10z"/>
<path d="M8025 3020 c3 -5 8 -10 11 -10 2 0 4 5 4 10 0 6 -5 10 -11 10 -5 0
-7 -4 -4 -10z"/>
<path d="M42 3008 c-14 -14 -16 -28 -2 -28 5 0 14 9 20 20 12 22 1 27 -18 8z"/>
<path d="M195 3010 c-3 -5 -2 -10 4 -10 5 0 13 5 16 10 3 6 2 10 -4 10 -5 0
-13 -4 -16 -10z"/>
<path d="M2890 3006 c-11 -14 -11 -26 3 -74 10 -36 12 -62 7 -72 -6 -10 -10
-11 -10 -2 0 6 -7 12 -15 12 -11 0 -15 -11 -15 -40 0 -43 -5 -46 -58 -31 -17
5 -32 6 -32 2 0 -12 35 -41 48 -41 7 0 17 -9 24 -20 12 -18 13 -18 39 12 l26
32 17 -26 c23 -36 25 -188 2 -223 -26 -40 -20 -45 49 -45 42 0 65 -4 65 -12 0
-6 -12 -51 -26 -99 -22 -73 -25 -91 -14 -104 19 -23 43 -19 35 5 -4 13 -2 20
6 20 7 0 9 -3 6 -6 -3 -4 -2 -15 4 -25 8 -16 6 -19 -11 -19 -12 0 -18 -4 -15
-10 8 -13 -1 -13 -25 0 -25 13 -31 2 -65 -109 -19 -65 -25 -96 -17 -99 18 -6
35 -79 23 -99 -8 -16 -10 -14 -16 8 -4 15 -6 33 -5 40 4 25 0 39 -9 39 -14 0
-65 -164 -58 -183 10 -28 54 -48 114 -54 70 -7 91 -19 66 -40 -11 -8 -4 -7 20
4 l38 17 -2 103 c-1 57 -5 103 -10 103 -5 0 -12 12 -15 26 -5 21 -11 25 -33
21 -14 -2 -34 -8 -43 -12 -23 -9 -24 17 -2 36 8 7 13 21 11 31 -6 22 9 33 26
20 7 -5 24 -12 38 -16 l27 -6 1 203 c1 165 4 204 16 213 18 14 19 36 3 53 -11
10 -9 11 7 5 16 -6 18 -5 8 7 -7 7 -13 18 -13 23 0 6 5 3 11 -6 5 -10 17 -18
25 -18 12 0 14 7 9 30 -5 23 -3 30 9 30 9 0 16 -4 16 -10 0 -5 -4 -10 -8 -10
-4 0 -8 -12 -7 -27 0 -21 -4 -27 -17 -25 -10 2 -18 -3 -18 -11 0 -30 24 -37
127 -37 l104 0 -15 28 c-27 53 -29 96 -6 178 12 44 24 82 26 86 9 14 64 -55
64 -81 l0 -26 13 25 c7 14 22 26 34 28 11 2 24 11 27 20 3 9 9 22 12 29 4 9
-3 10 -28 2 -18 -5 -34 -9 -34 -9 -9 0 -20 60 -14 71 5 8 -1 34 -15 63 -17 37
-24 44 -29 31 -4 -11 0 -23 11 -32 17 -14 17 -14 0 -9 -10 3 -21 6 -23 6 -2 0
-4 8 -4 18 0 31 -46 65 -91 68 -46 2 -79 -5 -79 -16 0 -4 12 -5 28 -2 22 4 25
3 15 -9 -9 -11 -8 -20 7 -39 11 -14 20 -28 20 -32 0 -14 -60 -9 -90 7 -25 13
-30 13 -30 1 0 -20 25 -77 35 -79 12 -3 14 -36 3 -43 -16 -10 -35 16 -30 41 3
15 0 25 -8 25 -6 0 -10 6 -8 12 3 7 -4 21 -14 32 -10 11 -18 26 -18 33 0 10
-5 10 -25 1 -29 -13 -31 -27 -9 -70 15 -28 14 -31 -5 -44 -11 -8 -25 -32 -31
-54 -8 -28 -15 -38 -26 -33 -15 6 -10 45 7 51 5 2 9 13 9 25 0 11 3 17 7 14 3
-4 12 -2 19 3 16 14 6 48 -17 55 -10 4 -19 10 -19 15 0 4 -12 11 -26 14 -24 6
-25 8 -10 25 9 10 16 26 16 35 0 13 6 17 18 14 11 -3 19 0 19 8 0 8 -12 12
-31 12 -34 -1 -57 -10 -80 -34 -15 -14 -16 -13 -17 8 0 13 -4 31 -8 41 -6 17
-8 18 -21 3z m17 -188 c-3 -8 -6 -5 -6 6 -1 11 2 17 5 13 3 -3 4 -12 1 -19z
m229 -7 c0 -11 -4 -17 -8 -15 -4 3 -8 12 -8 20 0 8 4 14 8 14 4 0 8 -9 8 -19z
m21 -75 c-2 -5 -11 -10 -20 -12 -12 -1 -17 5 -17 20 0 13 3 26 7 30 9 9 35
-24 30 -38z m13 -72 c0 -8 -5 -12 -10 -9 -6 4 -8 11 -5 16 9 14 15 11 15 -7z
m150 -120 c0 -2 -9 0 -20 6 -11 6 -20 13 -20 16 0 2 9 0 20 -6 11 -6 20 -13
20 -16z m-256 -29 c-4 -8 -11 -15 -16 -15 -6 0 -5 6 2 15 7 8 14 15 16 15 2 0
1 -7 -2 -15z m-94 -416 c0 -28 -15 -23 -18 7 -1 14 2 23 8 19 6 -3 10 -15 10
-26z m100 -147 c-6 -2 -7 -15 -4 -28 5 -20 2 -24 -14 -24 -12 0 -24 -4 -27
-10 -9 -15 -28 -12 -51 6 -19 15 -19 16 0 9 18 -5 19 -4 5 12 -23 27 -18 43
21 63 34 17 35 17 57 -4 12 -11 18 -22 13 -24z m-63 -148 c-3 -3 -12 -4 -19
-1 -8 3 -5 6 6 6 11 1 17 -2 13 -5z"/>
<path d="M2115 3000 c3 -5 8 -10 11 -10 2 0 4 5 4 10 0 6 -5 10 -11 10 -5 0
-7 -4 -4 -10z"/>
<path d="M6040 3000 c0 -5 5 -10 10 -10 6 0 10 5 10 10 0 6 -4 10 -10 10 -5 0
-10 -4 -10 -10z"/>
<path d="M377 2959 c3 -10 10 -16 15 -13 6 4 14 0 19 -7 7 -11 9 -11 9 2 0 9
-11 21 -24 27 -21 9 -23 8 -19 -9z"/>
<path d="M3072 2964 c10 -10 20 -16 22 -13 3 3 -5 11 -17 18 -21 13 -21 12 -5
-5z"/>
<path d="M0 2939 c0 -28 19 -59 36 -59 5 0 3 5 -4 12 -17 17 -15 33 2 19 10
-9 16 -8 25 3 18 22 -3 56 -34 56 -21 0 -25 -5 -25 -31z"/>
<path d="M335 2960 c4 -6 11 -8 16 -5 14 9 11 15 -7 15 -8 0 -12 -5 -9 -10z"/>
<path d="M8062 2963 c0 -5 -2 -16 -7 -26 -5 -13 -2 -25 13 -40 l21 -20 -6 21
c-3 12 -9 22 -14 22 -5 0 -9 6 -9 13 1 6 9 2 19 -10 11 -13 22 -23 25 -23 12
0 5 26 -13 48 -19 22 -32 29 -29 15z"/>
<path d="M140 2941 c-13 -25 -13 -51 0 -51 6 0 10 -7 10 -15 0 -8 -4 -15 -10
-15 -5 0 -10 -5 -10 -11 0 -5 4 -7 10 -4 6 4 9 -24 7 -77 -2 -78 -1 -83 18
-80 17 3 16 0 -8 -22 -27 -25 -28 -30 -24 -94 8 -119 18 -204 28 -229 5 -14 7
-29 3 -34 -10 -17 5 -9 31 16 30 31 34 50 6 35 -11 -5 -22 -6 -25 -1 -7 11 -1
70 14 139 7 30 9 74 5 98 -5 38 -4 43 10 38 13 -5 15 0 9 36 -5 33 -4 41 5 35
9 -5 12 0 9 16 -2 15 2 23 10 22 6 -2 12 4 12 12 0 9 -6 12 -15 9 -13 -6 -20
6 -16 29 0 4 -3 7 -7 7 -13 0 -35 89 -29 119 4 21 2 31 -9 35 -22 8 -22 8 -34
-13z m60 -196 c0 -8 -9 -15 -20 -15 -17 0 -19 2 -8 15 17 19 28 19 28 0z"/>
<path d="M5170 2943 c0 -6 8 -17 18 -24 16 -13 16 -13 2 6 -8 11 -16 22 -17
24 -2 2 -3 0 -3 -6z"/>
<path d="M6395 2922 c-6 -17 30 -56 45 -47 6 3 10 1 10 -6 0 -7 3 -9 7 -5 5 4
-1 14 -11 22 -16 11 -17 17 -8 26 10 10 15 10 22 -2 5 -8 12 -11 16 -7 12 12
-9 27 -43 31 -22 2 -34 -2 -38 -12z"/>
<path d="M608 2923 c7 -3 16 -2 19 1 4 3 -2 6 -13 5 -11 0 -14 -3 -6 -6z"/>
<path d="M1293 2923 c-20 -8 -15 -33 6 -33 16 0 31 18 31 36 0 5 -21 4 -37 -3z"/>
<path d="M2141 2914 c0 -11 3 -14 6 -6 3 7 2 16 -1 19 -3 4 -6 -2 -5 -13z"/>
<path d="M316 2903 c-6 -14 -5 -15 5 -6 7 7 10 15 7 18 -3 3 -9 -2 -12 -12z"/>
<path d="M510 2910 c0 -5 7 -10 16 -10 8 0 12 5 9 10 -3 6 -10 10 -16 10 -5 0
-9 -4 -9 -10z"/>
<path d="M92 2890 c0 -14 2 -19 5 -12 2 6 2 18 0 25 -3 6 -5 1 -5 -13z"/>
<path d="M575 2890 c-3 -5 -1 -10 4 -10 6 0 11 5 11 10 0 6 -2 10 -4 10 -3 0
-8 -4 -11 -10z"/>
<path d="M1255 2880 c-3 -5 -1 -10 4 -10 6 0 11 5 11 10 0 6 -2 10 -4 10 -3 0
-8 -4 -11 -10z"/>
<path d="M5201 2874 c0 -11 3 -14 6 -6 3 7 2 16 -1 19 -3 4 -6 -2 -5 -13z"/>
<path d="M3942 2870 c26 -5 51 -11 57 -14 5 -4 12 -2 15 3 8 12 -29 21 -79 20
l-40 -1 47 -8z"/>
<path d="M4250 2870 c0 -13 30 -13 50 0 11 7 7 10 -17 10 -18 0 -33 -4 -33
-10z"/>
<path d="M27 2849 c-8 -31 4 -47 15 -19 5 13 5 27 0 32 -6 6 -12 0 -15 -13z"/>
<path d="M3594 2846 c-4 -18 2 -37 24 -68 16 -24 39 -62 51 -85 14 -29 26 -41
36 -37 16 7 15 35 -2 56 -11 14 -46 74 -70 120 -20 39 -31 43 -39 14z"/>
<path d="M4062 2853 c8 -10 18 -30 22 -45 3 -16 13 -28 21 -28 17 0 20 16 4
25 -6 4 -14 17 -18 29 -7 18 -4 22 23 27 26 5 23 7 -18 8 -46 1 -48 0 -34 -16z"/>
<path d="M397 2848 c-18 -6 -27 -16 -25 -26 1 -10 -1 -22 -5 -29 -4 -6 -3 -14
2 -18 6 -3 8 -12 4 -20 -3 -9 1 -15 11 -15 9 0 16 -4 16 -10 0 -5 7 -10 16
-10 8 0 12 -4 9 -10 -8 -13 1 -13 25 0 12 6 17 16 13 26 -5 13 -2 15 15 10 31
-10 34 8 6 39 -20 22 -23 30 -12 37 10 7 9 8 -4 6 -9 -2 -23 4 -30 13 -10 13
-19 15 -41 7z"/>
<path d="M1161 2846 c-17 -20 2 -29 40 -21 32 7 29 18 -7 29 -13 4 -26 1 -33
-8z"/>
<path d="M2460 2846 c0 -9 5 -16 10 -16 6 0 10 4 10 9 0 6 -4 13 -10 16 -5 3
-10 -1 -10 -9z"/>
<path d="M60 2835 c0 -9 5 -15 11 -13 14 5 14 21 0 26 -6 2 -11 -4 -11 -13z"/>
<path d="M256 2821 c-3 -5 1 -11 9 -15 8 -3 15 -1 15 4 0 13 -18 22 -24 11z"/>
<path d="M1695 2787 c-8 -31 -4 -57 10 -60 14 -3 19 63 6 76 -7 7 -12 2 -16
-16z"/>
<path d="M5397 2788 c-8 -31 3 -109 19 -133 17 -24 19 -2 3 28 -9 16 -9 22 0
25 6 2 11 8 11 13 0 6 -4 8 -9 5 -5 -4 -5 10 -1 31 5 20 7 41 4 45 -9 15 -22
8 -27 -14z"/>
<path d="M1110 2789 c0 -6 14 -16 30 -22 17 -6 30 -15 30 -19 0 -15 -53 -21
-73 -9 -10 7 -16 8 -13 2 4 -6 2 -20 -4 -32 -17 -30 -2 -38 21 -10 10 13 19
18 19 13 0 -6 -5 -14 -11 -17 -5 -4 -14 -18 -19 -31 -11 -28 -22 -30 -43 -9
-18 17 -31 7 -16 -12 7 -8 9 -29 5 -52 -5 -35 -4 -40 22 -49 43 -18 90 -26 72
-13 -8 6 -20 11 -27 11 -6 0 -24 5 -38 10 -23 9 -25 13 -14 26 12 14 14 13 21
-5 7 -19 13 -21 56 -15 38 5 52 2 65 -10 20 -21 12 -46 -17 -47 -36 -1 32 -19
94 -24 30 -3 70 -8 89 -11 70 -12 117 -14 96 -4 -11 5 -36 9 -55 9 -19 1 -42
6 -50 12 -11 8 5 9 60 5 56 -4 80 -1 94 10 28 20 33 18 46 -22 9 -25 15 -32
20 -23 5 7 32 19 62 26 48 13 54 12 65 -4 17 -22 17 -4 0 36 -7 17 -16 28 -20
24 -4 -3 -4 8 -1 25 6 32 -8 46 -19 19 -3 -8 -19 -14 -36 -15 -23 0 -31 4 -31
17 0 27 -10 31 -34 17 -25 -16 -106 -28 -106 -16 0 22 15 42 36 51 13 4 24 15
24 23 0 12 -11 14 -47 12 -37 -2 -48 -7 -54 -24 -5 -12 -16 -22 -25 -22 -10 0
-14 -5 -11 -14 4 -10 1 -13 -9 -9 -8 3 -13 8 -10 11 3 2 1 12 -4 22 -6 11 -5
28 2 48 10 26 9 34 -5 50 -9 10 -17 31 -17 45 0 32 -10 34 -35 7 -10 -12 -25
-18 -32 -15 -8 2 -11 0 -8 -5 3 -6 1 -10 -4 -10 -6 0 -11 4 -11 9 0 5 -12 9
-28 9 -15 -1 -42 6 -59 16 -38 19 -43 20 -43 5z m233 -115 c-8 -22 -25 -17
-18 6 6 18 4 19 -19 10 -14 -5 -26 -7 -26 -4 0 2 10 8 23 13 26 10 48 -4 40
-25z m85 -98 c-7 -8 -17 -12 -22 -9 -4 3 -2 9 5 14 22 13 31 11 17 -5z m-118
-15 c0 -17 -21 -24 -33 -11 -9 10 -9 11 1 6 6 -4 12 -2 12 3 0 6 5 11 10 11 6
0 10 -4 10 -9z m165 -33 c12 -3 -1 -9 -34 -16 -35 -8 -58 -9 -65 -3 -7 6 -23
7 -37 4 -21 -6 -22 -5 -9 9 8 8 22 15 30 15 8 0 25 3 38 7 16 6 22 3 22 -8 0
-9 4 -16 9 -16 5 0 7 10 4 23 -5 20 -4 20 8 5 8 -9 23 -18 34 -20z m135 -9 c0
-14 -17 -10 -23 5 -4 10 -1 13 9 9 7 -3 14 -9 14 -14z"/>
<path d="M7735 2770 c-40 -26 -50 -55 -27 -78 10 -10 22 -26 25 -36 4 -9 11
-14 17 -11 6 4 0 23 -14 50 l-25 44 27 18 c15 10 34 21 42 25 13 6 13 7 0 7
-8 0 -28 -9 -45 -19z m-15 -65 c0 -8 -2 -15 -4 -15 -2 0 -6 7 -10 15 -3 8 -1
15 4 15 6 0 10 -7 10 -15z"/>
<path d="M8012 2742 c5 -21 -30 -41 -41 -24 -6 11 -9 10 -13 -5 -8 -32 1 -43
21 -25 10 9 26 22 37 28 16 10 17 14 6 25 -11 12 -13 12 -10 1z"/>
<path d="M82 2714 c-20 -10 -21 -12 -6 -18 18 -7 39 6 33 21 -2 5 -14 4 -27
-3z"/>
<path d="M8065 2709 l-40 -5 38 -8 c38 -8 52 -5 46 11 -2 4 -22 5 -44 2z"/>
<path d="M7652 2694 c-7 -8 -8 -14 -3 -14 10 0 25 19 20 25 -2 1 -10 -3 -17
-11z"/>
<path d="M465 2682 c-24 -5 -64 -32 -48 -32 7 0 24 5 38 12 21 9 28 9 34 0 8
-13 41 -6 41 8 0 10 -39 17 -65 12z"/>
<path d="M7831 2668 c-11 -31 -24 -84 -18 -78 14 15 44 100 36 100 -5 0 -13
-10 -18 -22z"/>
<path d="M7930 2681 c0 -5 5 -13 10 -16 6 -3 10 -2 10 4 0 5 -4 13 -10 16 -5
3 -10 2 -10 -4z"/>
<path d="M7677 2673 c-4 -3 -7 -11 -7 -17 0 -6 5 -5 12 2 6 6 9 14 7 17 -3 3
-9 2 -12 -2z"/>
<path d="M7865 2670 c-3 -6 1 -7 9 -4 18 7 21 14 7 14 -6 0 -13 -4 -16 -10z"/>
<path d="M8066 2664 c-4 -10 -1 -14 6 -12 15 5 23 28 10 28 -5 0 -13 -7 -16
-16z"/>
<path d="M7615 2660 c-3 -5 -1 -10 4 -10 6 0 11 5 11 10 0 6 -2 10 -4 10 -3 0
-8 -4 -11 -10z"/>
<path d="M570 2656 c0 -2 7 -7 16 -10 8 -3 12 -2 9 4 -6 10 -25 14 -25 6z"/>
<path d="M7633 2630 c-6 -17 -7 -30 -2 -30 9 0 24 48 17 55 -2 2 -9 -9 -15
-25z"/>
<path d="M7875 2650 c-3 -5 -1 -10 4 -10 6 0 11 5 11 10 0 6 -2 10 -4 10 -3 0
-8 -4 -11 -10z"/>
<path d="M7993 2653 c-7 -2 -13 -11 -13 -19 0 -8 -7 -14 -16 -14 -8 0 -13 -4
-9 -9 3 -5 -7 -19 -21 -30 -30 -23 -29 -25 3 -35 18 -6 20 -4 16 14 -3 12 0
20 6 20 7 0 9 -4 6 -10 -4 -6 5 -10 20 -10 22 0 25 -4 20 -20 -3 -10 1 -43 9
-71 9 -29 16 -54 16 -55 0 -1 -13 -7 -30 -14 -16 -7 -30 -16 -30 -21 0 -13 13
-11 49 7 24 12 30 21 26 33 -17 39 -15 48 7 63 13 9 33 18 43 21 15 3 13 5 -7
6 -16 0 -28 -3 -28 -9 0 -5 -4 -10 -10 -10 -15 0 -12 16 6 34 14 15 14 16 -2
16 -13 0 -16 6 -11 34 3 19 2 37 -1 41 -4 3 -7 14 -7 23 0 17 -20 25 -42 15z"/>
<path d="M293 2638 c0 -7 -3 -28 -7 -45 -6 -26 -4 -33 7 -33 30 0 47 12 47 34
-1 36 -46 79 -47 44z"/>
<path d="M7500 2624 c-14 -35 -13 -38 14 -63 l24 -23 7 24 c15 54 28 78 44 79
11 0 12 2 3 6 -7 3 -18 0 -25 -5 -8 -7 -18 -7 -27 -2 -23 15 -30 12 -40 -16z"/>
<path d="M3711 2619 c7 -14 14 -18 21 -11 13 13 2 32 -18 32 -12 0 -13 -4 -3
-21z"/>
<path d="M3758 2608 l-35 -33 22 -63 c12 -34 25 -59 30 -55 4 5 5 1 3 -7 -8
-23 8 -47 43 -64 48 -24 62 -21 58 10 0 3 7 11 16 18 15 11 13 17 -26 62 -23
27 -49 48 -56 48 -7 -1 -13 1 -13 5 0 4 -9 17 -20 29 -20 21 -20 21 6 51 34
41 17 40 -28 -1z m70 -129 c-3 -8 -7 -3 -11 10 -4 17 -3 21 5 13 5 -5 8 -16 6
-23z m-20 -24 c-3 -3 -9 2 -12 12 -6 14 -5 15 5 6 7 -7 10 -15 7 -18z"/>
<path d="M7685 2630 c-3 -6 1 -7 9 -4 18 7 21 14 7 14 -6 0 -13 -4 -16 -10z"/>
<path d="M1022 2610 c0 -14 2 -19 5 -12 2 6 2 18 0 25 -3 6 -5 1 -5 -13z"/>
<path d="M3436 2617 c3 -10 9 -15 12 -12 3 3 0 11 -7 18 -10 9 -11 8 -5 -6z"/>
<path d="M7915 2599 c-4 -6 -5 -12 -2 -15 2 -3 7 2 10 11 7 17 1 20 -8 4z"/>
<path d="M5462 2575 c0 -16 2 -22 5 -12 2 9 2 23 0 30 -3 6 -5 -1 -5 -18z"/>
<path d="M563 2568 c1 -21 21 -19 25 4 2 8 -4 15 -12 15 -8 0 -14 -9 -13 -19z"/>
<path d="M3830 2572 c0 -10 7 -27 15 -38 13 -17 14 -17 15 -1 0 14 5 16 28 11
l27 -7 -31 26 c-37 31 -54 34 -54 9z"/>
<path d="M5422 2543 c-2 -49 0 -53 21 -52 16 1 17 3 5 6 -12 3 -18 18 -21 51
l-3 47 -2 -52z"/>
<path d="M4622 2564 c-1 -11 -13 -42 -26 -70 -26 -53 -34 -83 -43 -181 -4 -44
-2 -63 6 -63 6 0 11 5 11 10 0 6 7 10 16 10 11 0 14 -6 9 -20 -3 -11 -2 -27 3
-36 7 -13 10 -10 15 15 7 32 0 61 -13 61 -4 0 -8 16 -8 36 0 20 -5 39 -10 43
-7 4 0 29 19 67 24 47 29 71 26 105 -2 24 -4 35 -5 23z"/>
<path d="M7571 2563 c0 -13 -5 -23 -10 -23 -11 0 -3 -39 12 -57 5 -7 13 -10
18 -7 5 3 21 -3 37 -14 44 -30 59 -35 29 -9 -23 19 -26 25 -14 30 16 6 47 -31
47 -57 0 -8 7 -22 16 -30 39 -39 33 -95 -11 -110 -11 -4 -33 -24 -50 -46 -16
-22 -36 -37 -42 -35 -7 2 -13 0 -13 -5 0 -5 16 -9 35 -8 30 1 41 8 65 42 16
23 34 47 40 54 6 6 8 12 5 12 -4 0 0 7 9 15 18 18 26 19 26 2 0 -13 40 -43 52
-39 5 1 7 -1 7 -6 -3 -18 2 -30 14 -35 8 -3 14 1 14 8 0 8 -3 14 -6 13 -19 -2
-24 4 -11 12 12 7 11 10 -5 16 -20 8 -25 12 -59 52 -19 22 -19 22 -1 16 13 -5
16 -4 11 4 -4 7 -13 12 -19 12 -7 1 -25 12 -42 26 -17 15 -22 24 -12 20 21 -7
23 12 1 21 -12 4 -12 8 -4 13 9 5 6 10 -9 15 -11 3 -21 13 -21 21 0 12 -8 14
-32 10 -18 -3 -27 -3 -20 0 19 9 14 23 -6 17 -22 -5 -38 12 -45 47 -4 23 -4
23 -6 3z m109 -323 c-22 -31 -40 -46 -40 -34 0 8 51 64 58 64 2 0 -6 -13 -18
-30z"/>
<path d="M7882 2550 c0 -14 2 -19 5 -12 2 6 2 18 0 25 -3 6 -5 1 -5 -13z"/>
<path d="M587 2521 c-5 -22 -2 -37 7 -47 21 -20 25 -5 11 41 l-12 39 -6 -33z"/>
<path d="M8095 2540 c-3 -5 -1 -10 4 -10 6 0 11 5 11 10 0 6 -2 10 -4 10 -3 0
-8 -4 -11 -10z"/>
<path d="M375 2515 c-3 -8 -7 -22 -10 -31 -4 -14 0 -15 28 -10 28 5 35 2 50
-21 14 -22 17 -24 15 -8 -2 11 -12 28 -23 37 -11 10 -16 17 -11 18 11 0 -25
29 -37 30 -4 0 -10 -7 -12 -15z"/>
<path d="M5655 2503 c-3 -10 29 -13 140 -13 l145 0 0 -84 0 -84 -37 -5 c-21
-3 -90 -4 -153 -2 l-116 3 -1 -60 c-1 -33 -5 -68 -8 -78 -6 -18 1 -20 102 -22
l108 -3 3 -87 3 -88 -114 0 -113 0 4 -35 c2 -20 10 -35 17 -35 8 0 16 -9 20
-19 5 -16 14 -19 50 -18 36 2 45 -2 49 -17 4 -17 0 -18 -51 -13 -31 3 -59 11
-63 17 -5 8 -9 6 -14 -6 -3 -9 -5 -18 -3 -20 8 -8 216 -17 241 -10 l26 6 1
118 c1 64 4 164 8 222 l7 105 8 -90 c5 -49 6 -147 3 -218 -5 -107 -4 -129 8
-134 11 -4 15 -24 15 -83 0 -73 11 -107 24 -78 3 7 5 -9 4 -37 -1 -27 2 -59 7
-69 6 -14 3 -23 -10 -32 -10 -8 -14 -14 -8 -14 6 0 15 -14 18 -31 5 -23 9 -28
16 -18 5 9 8 -10 7 -51 -1 -63 -1 -64 -8 -20 l-7 45 -1 -42 c-1 -23 3 -45 8
-48 18 -11 11 -35 -10 -35 -18 0 -20 7 -20 73 -1 56 -3 68 -11 54 -6 -10 -9
-45 -6 -79 4 -58 15 -77 45 -78 6 0 12 -7 12 -16 0 -11 5 -14 16 -10 9 3 20 6
25 6 5 0 9 15 9 33 0 24 -3 28 -10 17 -9 -13 -11 -13 -20 0 -15 23 -8 55 12
52 24 -4 29 24 22 129 -7 110 -7 102 6 199 5 41 8 81 5 88 -3 7 5 12 20 12 14
0 25 5 25 10 0 6 -26 11 -57 11 -53 2 -50 3 25 9 94 8 122 21 41 18 -30 -1
-79 0 -109 2 -52 3 -50 3 29 10 60 5 86 12 93 23 4 9 15 23 24 32 8 8 11 15 6
15 -5 0 -12 9 -15 20 -3 11 -2 18 3 15 6 -4 20 64 20 101 0 18 -61 19 -78 2
-9 -9 -12 -9 -12 0 0 6 14 15 32 20 41 10 45 25 13 42 -21 11 -28 12 -34 1 -6
-9 -10 -7 -14 8 -3 14 -1 19 6 14 7 -3 4 3 -6 14 -16 18 -16 24 -6 41 7 12 21
23 31 25 10 3 18 11 18 17 0 7 -8 10 -20 7 -19 -5 -45 14 -34 26 3 3 -3 8 -14
12 -24 7 -40 78 -23 99 6 7 8 16 4 20 -4 4 3 9 14 12 12 4 29 16 37 29 10 15
33 27 65 35 28 7 51 15 51 18 0 4 -121 7 -270 7 -207 0 -271 -3 -275 -12z m89
-218 c-14 -11 -15 -15 -4 -14 8 1 34 1 58 0 39 -1 42 -3 32 -21 -13 -24 -43
-26 -64 -5 -9 9 -17 11 -21 5 -3 -5 -11 -10 -16 -10 -6 0 -8 4 -4 9 3 5 -1 16
-9 24 -18 18 -11 27 23 27 24 0 24 0 5 -15z m106 5 c0 -5 -8 -10 -17 -10 -15
0 -16 2 -3 10 19 12 20 12 20 0z m-80 -70 l20 -20 -40 0 c-22 0 -40 5 -40 10
0 6 7 10 15 10 8 0 15 5 15 10 0 15 8 12 30 -10z m25 -40 c-3 -5 -13 -10 -21
-10 -8 0 -14 5 -14 10 0 6 9 10 21 10 11 0 17 -4 14 -10z m-5 -320 c0 -5 -4
-10 -10 -10 -5 0 -10 5 -10 10 0 6 5 10 10 10 6 0 10 -4 10 -10z"/>
<path d="M5780 2250 c0 -5 10 -10 23 -10 18 0 19 2 7 10 -19 13 -30 13 -30 0z"/>
<path d="M232 2466 c-1 -25 3 -48 9 -52 8 -4 9 -3 5 5 -4 6 -1 22 7 34 12 19
12 26 2 40 -18 25 -22 21 -23 -27z"/>
<path d="M7832 2477 c3 -15 1 -27 -3 -27 -5 0 -9 8 -9 18 0 10 -7 19 -15 19
-8 0 -11 -5 -8 -10 3 -5 0 -12 -6 -16 -7 -5 4 -13 27 -20 29 -10 41 -20 48
-44 5 -17 15 -32 22 -33 7 -1 8 0 2 3 -15 7 -12 23 6 23 9 0 12 5 8 13 -4 6 1
4 12 -5 23 -20 39 -13 48 22 6 21 5 22 -4 8 -13 -21 -30 -24 -30 -5 -1 6 -9
22 -20 35 -20 24 -40 22 -40 -4 0 -8 -5 -12 -10 -9 -6 4 -8 11 -5 16 4 5 -1
17 -11 26 -16 17 -17 16 -12 -10z"/>
<path d="M1020 2480 c0 -5 7 -7 15 -4 8 4 15 8 15 10 0 2 -7 4 -15 4 -8 0 -15
-4 -15 -10z"/>
<path d="M4370 2470 c0 -11 4 -20 9 -20 5 0 7 9 4 20 -3 11 -7 20 -9 20 -2 0
-4 -9 -4 -20z"/>
<path d="M1001 2464 c0 -11 3 -14 6 -6 3 7 2 16 -1 19 -3 4 -6 -2 -5 -13z"/>
<path d="M4627 2436 c-5 -21 -6 -41 -3 -44 12 -11 17 7 14 44 l-3 39 -8 -39z"/>
<path d="M7542 2422 c-11 -49 -8 -74 4 -28 3 14 10 26 15 26 11 0 12 37 1 44
-5 3 -14 -16 -20 -42z"/>
<path d="M4281 2440 c14 -31 19 -36 19 -24 0 6 -7 19 -16 30 -14 18 -14 18 -3
-6z"/>
<path d="M340 2440 c0 -6 -4 -9 -9 -5 -5 3 -16 -2 -25 -10 -8 -9 -19 -16 -23
-16 -4 0 -7 -11 -6 -24 1 -17 -2 -22 -13 -18 -11 4 -15 0 -12 -13 4 -25 30
-44 64 -46 16 -2 29 -10 32 -20 6 -23 19 -23 32 1 7 14 6 21 -3 24 -6 3 3 5
21 4 18 0 35 3 39 6 3 4 0 7 -8 7 -8 0 -28 25 -44 56 -29 56 -45 75 -45 54z"/>
<path d="M8079 2443 c-17 -4 -33 -53 -18 -53 5 0 9 6 9 14 0 7 10 21 23 29 22
16 18 19 -14 10z"/>
<path d="M410 2415 c0 -10 7 -15 18 -13 21 4 19 22 -2 26 -10 2 -16 -3 -16
-13z"/>
<path d="M1105 2415 c-16 -7 -23 -14 -15 -14 8 0 26 6 40 14 32 18 14 18 -25
0z"/>
<path d="M7600 2415 c0 -2 10 -10 23 -16 20 -11 21 -11 8 4 -13 16 -31 23 -31
12z"/>
<path d="M7830 2409 c0 -5 5 -7 10 -4 6 3 10 8 10 11 0 2 -4 4 -10 4 -5 0 -10
-5 -10 -11z"/>
<path d="M2802 2338 c-11 -35 -23 -81 -26 -103 -5 -33 -2 -28 17 25 24 64 42
140 34 140 -2 0 -13 -28 -25 -62z"/>
<path d="M4300 2394 c1 -5 7 -20 15 -34 13 -24 14 -24 15 -4 0 12 -7 27 -15
34 -8 7 -15 9 -15 4z"/>
<path d="M7580 2390 c0 -5 5 -10 11 -10 5 0 7 5 4 10 -3 6 -8 10 -11 10 -2 0
-4 -4 -4 -10z"/>
<path d="M1890 2360 c0 -19 3 -21 12 -12 9 9 9 15 0 24 -9 9 -12 7 -12 -12z"/>
<path d="M6435 2370 c-3 -5 -1 -10 4 -10 6 0 11 5 11 10 0 6 -2 10 -4 10 -3 0
-8 -4 -11 -10z"/>
<path d="M7190 2358 c0 -19 2 -20 10 -8 13 19 13 30 0 30 -5 0 -10 -10 -10
-22z"/>
<path d="M6632 2337 c-2 -31 2 -40 18 -44 15 -4 20 -14 21 -42 l0 -36 17 33
c14 29 20 33 44 28 32 -6 37 8 9 23 -14 8 -23 6 -38 -9 -21 -18 -21 -18 -27
11 -3 16 -10 29 -16 29 -6 0 -8 -4 -5 -10 3 -5 2 -10 -4 -10 -5 0 -12 15 -14
33 -4 31 -4 30 -5 -6z"/>
<path d="M6670 2360 c0 -5 5 -10 10 -10 6 0 10 5 10 10 0 6 -4 10 -10 10 -5 0
-10 -4 -10 -10z"/>
<path d="M2635 2340 c-4 -6 -3 -36 1 -68 5 -31 8 -61 8 -66 2 -20 23 -14 61
18 22 19 37 37 34 40 -7 7 -59 -16 -59 -26 0 -5 -4 -8 -9 -8 -5 0 -7 9 -4 20
3 12 0 20 -6 20 -7 0 -9 5 -6 10 4 6 10 8 15 5 4 -3 11 1 13 7 4 10 6 10 6 1
1 -7 10 -13 22 -13 31 0 18 23 -19 35 -18 5 -32 15 -32 22 0 15 -16 17 -25 3z"/>
<path d="M7506 2328 c-3 -13 -6 -35 -6 -49 0 -30 -28 -91 -47 -102 -7 -4 -13
-15 -13 -23 0 -9 -5 -12 -12 -8 -7 4 -10 4 -6 0 8 -9 -36 -48 -107 -96 -27
-19 -57 -41 -66 -50 -35 -32 -121 -155 -151 -213 l-31 -62 49 40 c27 21 74 61
105 89 31 28 74 68 97 89 31 27 50 37 76 37 19 0 42 3 52 7 16 6 16 7 -1 13
-17 6 -17 7 3 12 15 4 22 2 22 -8 0 -8 8 -14 19 -14 14 0 17 -6 14 -27 -4 -25
-3 -26 10 -11 12 15 17 15 31 5 16 -12 16 -14 2 -26 -20 -17 -21 -32 -1 -25 8
3 13 11 12 16 -1 6 4 13 11 15 6 3 12 0 12 -6 0 -6 5 -11 10 -11 6 0 9 6 8 13
-2 7 6 11 22 10 24 -3 24 -2 3 6 -12 6 -24 19 -27 29 -4 11 -16 22 -28 25 -13
4 -19 11 -15 21 4 9 1 14 -6 11 -53 -16 -65 -15 -60 5 3 12 14 20 25 20 17 0
18 3 8 15 -6 8 -9 19 -5 26 5 8 -7 10 -44 8 -50 -4 -63 2 -38 18 7 4 30 29 51
54 34 41 38 53 40 107 2 62 -6 81 -18 40z"/>
<path d="M1905 2305 c-11 -19 -16 -37 -13 -41 4 -3 16 12 28 35 25 50 11 55
-15 6z"/>
<path d="M8010 2330 c-13 -8 -12 -10 3 -10 9 0 17 5 17 10 0 12 -1 12 -20 0z"/>
<path d="M535 2321 c3 -6 22 -11 42 -11 44 0 41 5 -10 14 -27 5 -37 4 -32 -3z"/>
<path d="M7601 2314 c0 -11 3 -14 6 -6 3 7 2 16 -1 19 -3 4 -6 -2 -5 -13z"/>
<path d="M3262 2238 l3 -83 90 0 c102 0 93 -13 80 108 l-6 57 -85 0 -85 0 3
-82z"/>
<path d="M4822 2303 c2 -10 11 -18 19 -18 9 0 23 -6 31 -13 13 -10 17 -9 21 9
5 20 8 21 23 8 14 -12 16 -11 13 6 -4 16 -14 21 -57 23 -47 3 -53 1 -50 -15z"/>
<path d="M4941 2313 c-1 -17 16 -25 25 -12 4 7 3 9 -4 5 -5 -3 -13 0 -15 6 -4
9 -6 10 -6 1z"/>
<path d="M4994 2311 c4 -6 0 -14 -8 -17 -9 -3 -16 -13 -16 -22 0 -12 -3 -13
-11 -5 -14 14 -39 6 -39 -13 0 -8 6 -11 16 -7 10 4 17 -1 21 -16 3 -11 11 -21
19 -21 17 0 31 23 16 28 -7 2 -12 8 -12 13 0 4 7 6 16 2 13 -5 15 -2 9 15 -4
13 -2 22 4 22 6 0 11 -5 11 -11 0 -6 7 -9 15 -5 9 3 15 0 15 -8 0 -8 6 -17 13
-20 9 -5 9 -7 -1 -12 -10 -5 -10 -9 -1 -20 8 -10 8 -14 0 -14 -6 0 -11 -7 -11
-15 0 -20 16 -19 24 1 13 35 6 81 -16 101 -26 24 -75 42 -64 24z"/>
<path d="M6377 2296 c-5 -15 -6 -31 -3 -34 8 -8 18 25 14 45 -3 13 -6 10 -11
-11z"/>
<path d="M230 2273 c0 -21 3 -24 9 -14 5 8 7 20 4 28 -8 21 -13 15 -13 -14z"/>
<path d="M483 2285 c-8 -9 -9 -15 0 -24 14 -14 37 -14 37 0 0 6 -7 9 -15 5 -8
-3 -15 -1 -15 3 0 5 5 11 12 13 7 3 8 7 3 10 -6 3 -15 0 -22 -7z"/>
<path d="M6407 2234 c-15 -60 -15 -68 -1 -97 21 -41 18 -39 38 -31 10 4 16 18
16 39 0 18 7 52 15 75 17 49 19 68 6 55 -6 -6 -16 -37 -24 -70 l-15 -60 -2 55
c-1 42 -4 50 -11 35 -6 -14 -7 -8 -3 23 9 63 -1 51 -19 -24z m10 -46 c-3 -8
-6 -5 -6 6 -1 11 2 17 5 13 3 -3 4 -12 1 -19z"/>
<path d="M6778 2294 c-2 -12 -5 -28 -8 -34 -9 -26 -8 -51 2 -48 7 3 14 14 16
26 2 12 8 20 13 17 14 -9 10 7 -6 29 -8 11 -16 16 -17 10z"/>
<path d="M8025 2290 c-3 -5 -1 -10 4 -10 6 0 11 5 11 10 0 6 -2 10 -4 10 -3 0
-8 -4 -11 -10z"/>
<path d="M154 2282 c-7 -4 -16 -24 -22 -44 -8 -30 -8 -38 3 -38 7 0 16 -8 18
-17 3 -10 5 1 6 24 1 32 6 45 22 54 17 9 19 13 8 20 -17 11 -21 11 -35 1z"/>
<path d="M440 2270 c0 -11 7 -20 15 -20 17 0 18 2 9 24 -9 23 -24 20 -24 -4z"/>
<path d="M670 2276 c0 -9 5 -16 10 -16 6 0 10 4 10 9 0 6 -4 13 -10 16 -5 3
-10 -1 -10 -9z"/>
<path d="M7580 2286 c0 -2 7 -7 16 -10 8 -3 12 -2 9 4 -6 10 -25 14 -25 6z"/>
<path d="M881 2264 c0 -11 3 -14 6 -6 3 7 2 16 -1 19 -3 4 -6 -2 -5 -13z"/>
<path d="M1941 2239 l-21 -34 32 -32 c31 -32 53 -38 28 -8 -7 8 -10 24 -7 34
3 14 1 18 -9 14 -8 -3 -14 -10 -14 -16 0 -6 -3 -8 -6 -5 -3 4 2 20 11 38 22
43 11 50 -14 9z"/>
<path d="M4820 2246 c0 -18 17 -29 30 -21 8 5 7 11 -1 21 -15 18 -29 18 -29 0z"/>
<path d="M7619 2243 c-13 -16 -12 -17 4 -4 16 13 21 21 13 21 -2 0 -10 -8 -17
-17z"/>
<path d="M8000 2253 c0 -5 -17 -8 -37 -6 l-38 2 35 -9 c19 -4 38 -6 42 -4 7 5
12 -11 9 -29 -1 -4 -2 -15 -4 -25 -1 -9 -6 -23 -10 -29 -5 -7 -4 -13 2 -13 6
0 13 12 17 28 3 15 8 35 11 45 2 9 -3 24 -11 33 -9 8 -16 12 -16 7z"/>
<path d="M3880 2242 c0 -15 58 -263 62 -268 3 -2 13 15 23 39 10 23 35 80 57
126 21 46 38 85 38 86 0 1 -30 5 -67 8 -38 4 -78 9 -90 13 -14 4 -23 2 -23 -4z"/>
<path d="M240 2225 c0 -8 2 -15 4 -15 2 0 6 7 10 15 3 8 1 15 -4 15 -6 0 -10
-7 -10 -15z"/>
<path d="M311 2218 c11 -20 29 -24 29 -7 0 6 6 9 13 6 6 -2 11 -12 9 -22 -3
-12 1 -16 12 -12 8 3 17 1 19 -6 2 -7 8 -8 13 -4 13 13 -48 62 -78 62 -22 0
-24 -3 -17 -17z"/>
<path d="M6690 2236 c0 -2 7 -9 15 -16 13 -11 14 -10 9 4 -5 14 -24 23 -24 12z"/>
<path d="M1875 2221 c-9 -16 3 -63 15 -56 6 3 7 -1 4 -9 -3 -9 -1 -16 4 -16
20 0 20 15 3 54 -12 24 -21 34 -26 27z"/>
<path d="M6800 2223 c0 -15 19 -37 26 -31 3 4 -1 14 -10 23 -9 9 -16 13 -16 8z"/>
<path d="M2300 2209 c0 -5 5 -7 10 -4 6 3 10 8 10 11 0 2 -4 4 -10 4 -5 0 -10
-5 -10 -11z"/>
<path d="M7960 2209 c0 -5 5 -7 10 -4 6 3 10 8 10 11 0 2 -4 4 -10 4 -5 0 -10
-5 -10 -11z"/>
<path d="M1001 2194 c0 -11 3 -14 6 -6 3 7 2 16 -1 19 -3 4 -6 -2 -5 -13z"/>
<path d="M6650 2191 c0 -12 6 -21 15 -21 8 0 15 3 15 6 0 3 -7 12 -15 20 -13
14 -15 13 -15 -5z"/>
<path d="M285 2191 c-3 -5 -1 -12 5 -16 5 -3 10 1 10 9 0 18 -6 21 -15 7z"/>
<path d="M5005 2190 c3 -5 8 -10 11 -10 2 0 4 5 4 10 0 6 -5 10 -11 10 -5 0
-7 -4 -4 -10z"/>
<path d="M6765 2180 c-3 -5 1 -10 10 -10 9 0 13 5 10 10 -3 6 -8 10 -10 10 -2
0 -7 -4 -10 -10z"/>
<path d="M7565 2182 c-3 -3 4 -11 15 -19 19 -14 40 -10 40 6 0 10 -47 21 -55
13z"/>
<path d="M467 2165 c-5 -10 0 -15 14 -15 12 0 19 5 17 12 -6 18 -25 20 -31 3z"/>
<path d="M4830 2161 c0 -16 6 -21 25 -21 16 0 25 6 25 15 0 8 -4 15 -9 15 -5
0 -16 3 -25 6 -12 4 -16 0 -16 -15z"/>
<path d="M4923 2159 c1 -15 9 -19 34 -19 30 0 32 2 21 19 -6 10 -21 19 -34 19
-16 0 -22 -6 -21 -19z"/>
<path d="M526 2161 c-4 -7 -5 -15 -2 -18 9 -9 19 4 14 18 -4 11 -6 11 -12 0z"/>
<path d="M327 2140 c-3 -11 -1 -20 4 -20 5 0 9 9 9 20 0 11 -2 20 -4 20 -2 0
-6 -9 -9 -20z"/>
<path d="M791 2134 c0 -11 3 -14 6 -6 3 7 2 16 -1 19 -3 4 -6 -2 -5 -13z"/>
<path d="M1005 2139 c-4 -6 -5 -12 -2 -15 2 -3 7 2 10 11 7 17 1 20 -8 4z"/>
<path d="M2452 2098 c-31 -81 -35 -95 -17 -65 8 15 22 27 30 27 8 0 15 5 15
12 0 6 7 3 15 -8 13 -17 13 -14 1 29 -8 27 -17 51 -19 54 -3 2 -14 -20 -25
-49z"/>
<path d="M4177 2070 c-21 -45 -37 -86 -37 -91 0 -11 90 -12 106 -1 22 15 23
56 2 106 -12 28 -24 55 -28 59 -4 4 -23 -29 -43 -73z"/>
<path d="M150 2130 c0 -5 5 -10 11 -10 5 0 7 5 4 10 -3 6 -8 10 -11 10 -2 0
-4 -4 -4 -10z"/>
<path d="M6150 2133 c0 -5 4 -14 9 -21 7 -11 9 -11 14 1 3 8 3 18 0 21 -9 8
-23 7 -23 -1z"/>
<path d="M7530 2131 c0 -6 5 -13 10 -16 6 -3 10 1 10 9 0 9 -4 16 -10 16 -5 0
-10 -4 -10 -9z"/>
<path d="M7995 2120 c-3 -5 -22 -10 -42 -10 -28 0 -33 -3 -24 -13 8 -10 7 -17
-2 -26 -9 -10 -9 -12 2 -9 16 3 51 -59 44 -78 -2 -6 3 -17 12 -24 8 -7 15 -24
15 -39 0 -14 -4 -21 -8 -16 -7 10 -72 20 -72 11 0 -2 4 -15 9 -29 9 -23 8 -24
-37 -24 -47 0 -107 30 -80 40 7 2 -2 9 -21 14 -43 11 -53 33 -16 33 25 0 85
44 85 63 0 5 -8 1 -17 -9 -19 -18 -90 -53 -110 -54 -19 0 -15 18 5 23 9 3 -4
5 -30 6 -26 0 -50 6 -53 11 -10 16 -22 12 -28 -10 -3 -11 -1 -20 4 -20 5 0 9
6 9 13 0 9 2 9 9 -1 4 -8 11 -13 15 -13 19 3 27 0 22 -8 -3 -4 27 -24 68 -44
45 -22 73 -41 73 -51 0 -9 -7 -16 -14 -16 -8 0 -11 5 -8 10 3 6 1 10 -4 10
-14 0 -14 -1 3 -40 11 -28 14 -30 18 -12 5 19 9 20 43 9 21 -6 31 -13 24 -15
-18 -6 -49 -38 -49 -52 0 -5 -4 -10 -9 -10 -5 0 -12 -11 -15 -24 -6 -26 -31
-56 -47 -56 -5 0 -2 11 7 25 10 15 12 25 5 25 -6 0 -11 -4 -11 -10 0 -5 -21
-10 -47 -10 -27 0 -77 -7 -113 -15 -36 -8 -102 -20 -147 -26 -64 -9 -89 -17
-114 -39 l-32 -27 13 -61 c11 -52 16 -62 34 -62 20 -1 20 -2 4 -14 -10 -7 -18
-21 -18 -30 0 -12 10 -16 48 -16 34 0 43 -3 32 -10 -8 -5 -26 -10 -40 -10 -18
0 -21 -3 -11 -9 11 -7 9 -11 -8 -20 -20 -11 -30 -41 -12 -41 5 0 30 12 56 27
33 18 66 27 107 29 32 2 57 0 54 -4 -2 -4 0 -14 5 -22 8 -12 12 -12 16 -2 2 6
14 12 26 12 18 0 19 2 7 10 -13 8 -13 10 2 10 9 0 28 -4 42 -10 25 -9 26 -9
19 35 l-6 45 32 0 c20 0 30 -4 26 -10 -4 -6 -9 -58 -11 -115 -5 -114 -7 -111
55 -99 26 5 31 12 36 43 12 74 15 81 35 81 15 0 20 7 20 25 0 16 -6 25 -16 25
-13 0 -15 7 -10 33 4 17 11 34 17 36 7 2 21 13 32 24 l21 21 -22 9 c-27 12
-23 32 6 32 16 1 30 18 58 74 20 40 42 75 50 78 8 3 14 10 14 16 0 5 -9 2 -19
-7 -11 -10 -25 -16 -32 -14 -8 3 4 21 30 46 24 23 37 42 29 42 -8 0 -20 -6
-28 -12 -8 -7 -4 -1 9 14 19 22 27 25 41 16 9 -6 25 -8 34 -5 14 6 16 28 16
172 l0 165 -54 0 c-30 0 -58 -4 -61 -10z m-85 -280 c20 -7 15 -8 -22 -7 -27 0
-48 4 -48 9 0 10 37 9 70 -2z m-405 -350 c8 -13 -15 -13 -35 0 -12 8 -11 10 7
10 12 0 25 -4 28 -10z m-95 -50 c0 -5 -2 -10 -4 -10 -3 0 -8 5 -11 10 -3 6 -1
10 4 10 6 0 11 -4 11 -10z"/>
<path d="M7830 2108 c0 -5 3 -8 8 -9 4 0 16 -2 26 -4 11 -2 27 0 35 4 10 6 1
10 -27 13 -23 2 -42 0 -42 -4z"/>
<path d="M167 2050 c2 -83 19 -133 44 -125 11 4 19 2 19 -4 0 -6 5 -11 10 -11
11 0 8 65 -4 77 -3 4 4 13 16 20 23 13 23 13 -5 9 -25 -4 -27 -3 -22 25 3 16
1 29 -5 29 -5 0 -9 6 -7 13 1 6 -6 11 -15 9 -10 -2 -18 2 -18 8 0 5 -3 10 -7
10 -5 0 -7 -27 -6 -60z"/>
<path d="M642 2098 c-16 -16 -15 -43 3 -58 21 -18 38 -2 30 29 -9 35 -18 44
-33 29z"/>
<path d="M985 2100 c-3 -5 -1 -10 4 -10 6 0 11 5 11 10 0 6 -2 10 -4 10 -3 0
-8 -4 -11 -10z"/>
<path d="M1420 2088 c0 -13 -8 -88 -17 -168 -9 -80 -15 -174 -14 -209 1 -35
-5 -102 -13 -150 -27 -158 -29 -204 -13 -262 21 -74 26 -118 29 -233 2 -94 4
-99 27 -108 16 -6 34 -5 50 2 24 10 30 26 71 193 42 169 45 192 45 312 0 72
-2 155 -4 185 -2 30 -2 62 0 70 3 11 -8 16 -46 21 l-50 6 60 0 c69 1 145 27
145 51 0 14 -1 14 -12 0 -7 -8 -28 -21 -47 -27 -56 -18 -171 -12 -171 10 0 5
7 6 15 3 19 -8 19 10 0 26 -9 8 -13 21 -9 36 4 15 2 24 -6 24 -6 0 -14 -9 -17
-20 -3 -11 -9 -20 -13 -20 -16 0 4 43 22 47 21 6 22 8 6 36 -7 12 -13 36 -13
52 -3 118 -6 145 -15 145 -5 0 -10 -10 -10 -22z m30 -283 c0 -8 -6 -15 -14
-15 -20 0 -29 17 -14 23 22 9 28 7 28 -8z"/>
<path d="M124 2078 c3 -13 5 -25 5 -28 2 -9 21 25 21 38 0 6 -7 12 -15 12 -10
0 -14 -7 -11 -22z"/>
<path d="M406 2087 c3 -10 -4 -17 -20 -21 -23 -6 -25 -9 -13 -26 8 -14 9 -23
2 -28 -12 -9 -16 -42 -4 -42 4 0 20 -12 34 -26 l26 -26 12 31 c6 17 16 30 22
30 31 -4 34 2 13 25 -37 38 -58 66 -58 76 0 5 -4 12 -10 15 -5 3 -7 0 -4 -8z"/>
<path d="M3530 2066 c0 -20 2 -36 4 -36 8 0 12 61 4 66 -4 3 -8 -11 -8 -30z"/>
<path d="M7581 2064 c0 -11 3 -14 6 -6 3 7 2 16 -1 19 -3 4 -6 -2 -5 -13z"/>
<path d="M4584 2056 c-5 -13 -3 -21 4 -24 17 -5 15 -29 -3 -36 -8 -3 -15 -17
-15 -32 0 -22 3 -24 14 -15 12 10 17 8 25 -8 6 -11 8 -28 4 -38 -6 -17 -5 -17
15 1 32 28 30 126 -3 126 -6 0 -17 10 -22 23 -10 21 -11 21 -19 3z"/>
<path d="M5185 2050 c-3 -5 -3 -15 1 -21 4 -7 0 -9 -12 -5 -11 3 -29 -3 -43
-13 l-25 -19 29 -39 c48 -62 59 -73 72 -73 9 0 11 8 7 26 -5 21 -4 25 6 19 10
-6 11 -1 5 26 -4 19 -7 46 -7 61 1 29 -22 56 -33 38z"/>
<path d="M6702 2030 c0 -14 2 -19 5 -12 2 6 2 18 0 25 -3 6 -5 1 -5 -13z"/>
<path d="M7820 2036 c0 -8 4 -18 10 -21 6 -4 7 1 3 11 -5 14 -2 16 15 12 12
-4 25 -2 28 3 3 5 -9 9 -25 9 -20 0 -31 -5 -31 -14z"/>
<path d="M7774 1996 c-10 -8 -16 -17 -13 -20 3 -3 14 3 24 14 21 23 17 26 -11
6z"/>
<path d="M265 1981 c-3 -5 -1 -12 5 -16 5 -3 10 1 10 9 0 18 -6 21 -15 7z"/>
<path d="M680 1974 c0 -8 5 -12 10 -9 6 4 8 11 5 16 -9 14 -15 11 -15 -7z"/>
<path d="M2530 1975 c0 -8 4 -15 10 -15 5 0 7 7 4 15 -4 8 -8 15 -10 15 -2 0
-4 -7 -4 -15z"/>
<path d="M3288 1982 c-28 -3 -28 -4 -28 -79 l0 -75 33 6 c17 4 58 9 89 13 l56
6 4 63 c2 35 1 65 -2 65 -15 3 -129 4 -152 1z"/>
<path d="M7885 1981 c-6 -5 -19 -11 -30 -14 -17 -4 -16 -5 5 -6 14 -1 46 -8
72 -16 46 -14 47 -13 35 6 -7 12 -19 18 -30 15 -10 -2 -21 2 -24 10 -6 16 -15
18 -28 5z"/>
<path d="M4826 1954 c-5 -12 2 -26 19 -41 14 -13 25 -28 25 -33 0 -6 13 -10
28 -10 15 0 33 -5 39 -11 6 -6 22 -9 36 -7 l26 3 -37 55 c-35 52 -39 55 -83
58 -37 2 -48 -1 -53 -14z m104 -54 c0 -5 -6 -10 -14 -10 -8 0 -18 5 -21 10 -3
6 3 10 14 10 12 0 21 -4 21 -10z"/>
<path d="M2555 1930 c9 -30 34 -80 40 -80 4 0 -35 92 -43 100 -2 3 -1 -6 3
-20z"/>
<path d="M470 1913 c-34 -11 -59 -27 -64 -40 -5 -11 -1 -11 16 2 29 19 49 19
42 0 -4 -8 -1 -15 6 -15 6 0 9 4 5 9 -3 6 4 15 15 21 11 6 18 15 15 21 -7 10
-12 10 -35 2z"/>
<path d="M4830 1890 c0 -6 7 -10 15 -10 8 0 15 2 15 4 0 2 -7 6 -15 10 -8 3
-15 1 -15 -4z"/>
<path d="M76 1868 c-14 -53 2 -68 88 -84 35 -6 38 -5 25 9 -8 8 -17 13 -21 10
-4 -2 -17 1 -29 7 -16 9 -20 19 -17 39 3 24 1 27 -16 23 -13 -3 -17 -1 -12 6
4 7 3 12 -2 12 -5 0 -12 -10 -16 -22z"/>
<path d="M622 1859 c-12 -11 -26 -18 -30 -16 -4 3 -8 -10 -9 -29 -1 -19 3 -34
8 -34 5 0 9 -4 9 -10 0 -5 -9 -10 -21 -10 -12 0 -18 -4 -13 -11 5 -9 -21 -10
-97 -7 -108 5 -106 -6 3 -18 35 -4 73 -11 86 -15 17 -7 25 -4 34 11 11 16 20
18 76 13 l63 -6 -6 39 c-12 68 -16 78 -26 63 -6 -11 -9 -8 -9 8 0 12 -9 27
-19 33 -25 13 -24 13 -49 -11z m23 -89 c3 -5 -1 -10 -9 -10 -9 0 -16 5 -16 10
0 6 4 10 9 10 6 0 13 -4 16 -10z"/>
<path d="M323 1855 c-6 -11 -13 -34 -16 -51 -5 -29 -3 -32 21 -36 24 -3 27 -1
26 27 0 16 -5 41 -11 55 -10 23 -10 23 -20 5z"/>
<path d="M191 1843 c0 -4 4 -17 9 -28 8 -19 9 -19 9 2 1 12 -3 25 -9 28 -5 3
-10 3 -9 -2z"/>
<path d="M555 1820 c-3 -5 -1 -10 4 -10 6 0 11 5 11 10 0 6 -2 10 -4 10 -3 0
-8 -4 -11 -10z"/>
<path d="M4047 1773 c-36 -72 -107 -275 -116 -333 -15 -97 -16 -179 -3 -192
17 -17 15 -59 -4 -86 -9 -13 -13 -30 -10 -38 3 -9 -1 -36 -9 -60 -22 -64 -20
-84 8 -84 19 0 31 15 65 83 23 45 44 101 48 125 10 65 42 106 85 110 50 4 65
-16 48 -63 -14 -36 -6 -64 18 -72 12 -4 11 29 -8 227 -18 191 -22 317 -10 324
6 4 11 18 11 31 0 13 7 31 16 39 14 15 9 16 -55 16 -67 0 -71 -1 -84 -27z"/>
<path d="M2566 1773 c-6 -14 -5 -15 5 -6 7 7 10 15 7 18 -3 3 -9 -2 -12 -12z"/>
<path d="M3630 1780 c0 -5 5 -10 11 -10 5 0 7 5 4 10 -3 6 -8 10 -11 10 -2 0
-4 -4 -4 -10z"/>
<path d="M1070 1766 c0 -2 7 -6 15 -10 8 -3 15 -1 15 4 0 6 -7 10 -15 10 -8 0
-15 -2 -15 -4z"/>
<path d="M244 1726 c12 -19 28 -47 34 -62 17 -45 65 -208 65 -221 0 -6 7 -9
14 -6 8 3 13 13 12 22 -1 9 2 25 6 35 6 14 3 24 -13 37 -19 15 -22 27 -22 92
0 42 4 87 9 100 8 21 6 26 -12 31 -12 3 -43 6 -69 6 l-47 0 23 -34z"/>
<path d="M1118 1753 c6 -2 18 -2 25 0 6 3 1 5 -13 5 -14 0 -19 -2 -12 -5z"/>
<path d="M1303 1743 c9 -2 23 -2 30 0 6 3 -1 5 -18 5 -16 0 -22 -2 -12 -5z"/>
<path d="M1048 1733 c7 -3 16 -2 19 1 4 3 -2 6 -13 5 -11 0 -14 -3 -6 -6z"/>
<path d="M1108 1667 c-3 -39 -18 -130 -33 -200 -27 -121 -28 -133 -15 -195 7
-37 16 -74 20 -82 4 -8 22 -87 40 -175 18 -88 37 -164 42 -170 5 -6 15 -5 28
3 11 6 28 12 37 12 16 0 18 14 20 140 1 89 7 163 17 203 11 44 16 109 16 222
-1 148 1 164 24 220 14 33 26 65 26 70 0 6 -29 10 -67 10 -38 1 -87 4 -109 8
l-41 7 -5 -73z"/>
<path d="M1053 1713 c9 -2 23 -2 30 0 6 3 -1 5 -18 5 -16 0 -22 -2 -12 -5z"/>
<path d="M1045 1690 c3 -5 10 -10 16 -10 5 0 9 5 9 10 0 6 -7 10 -16 10 -8 0
-12 -4 -9 -10z"/>
<path d="M1340 1685 c-7 -9 -10 -18 -6 -22 3 -3 6 -1 6 6 0 8 7 11 15 7 9 -3
15 0 15 9 0 19 -14 19 -30 0z"/>
<path d="M1062 1640 c0 -19 2 -27 5 -17 2 9 2 25 0 35 -3 9 -5 1 -5 -18z"/>
<path d="M7154 1633 c-4 -14 -3 -85 1 -157 4 -72 11 -189 14 -261 l6 -130 9
75 c5 46 4 106 -3 155 -6 44 -12 140 -13 213 -2 72 -4 132 -5 132 -2 0 -6 -12
-9 -27z"/>
<path d="M3249 1624 c12 -15 21 -36 21 -47 0 -17 5 -19 31 -13 17 3 38 6 46 6
9 0 13 6 10 14 -8 21 24 54 58 59 17 2 -19 5 -78 6 l-108 1 20 -26z"/>
<path d="M3588 1643 c7 -3 16 -2 19 1 4 3 -2 6 -13 5 -11 0 -14 -3 -6 -6z"/>
<path d="M5654 1634 c20 -19 20 -31 2 -65 -22 -42 -29 -156 -16 -244 13 -81
18 -119 19 -143 1 -7 5 -11 10 -8 5 4 12 0 14 -6 3 -7 6 -3 6 10 1 12 5 22 11
22 5 0 7 7 4 15 -4 8 -1 22 6 30 8 10 10 33 5 72 -3 32 -7 112 -8 178 l-2 119
32 7 c17 3 36 3 42 0 12 -8 19 -304 8 -341 -7 -23 -7 -24 5 -5 9 14 13 69 13
197 l0 178 -83 0 c-76 0 -82 -1 -68 -16z"/>
<path d="M6759 1629 c-1 -13 -1 -31 0 -40 1 -9 -7 -33 -19 -53 -11 -20 -20
-44 -21 -54 0 -14 -2 -14 -8 3 -7 17 -9 15 -19 -15 -19 -62 -27 -122 -59 -470
l-5 -56 31 -2 c28 -2 31 1 41 40 6 24 29 98 51 165 39 117 40 124 29 183 -6
33 -10 117 -9 185 2 69 0 128 -4 132 -4 3 -8 -5 -8 -18z"/>
<path d="M2153 1633 c-18 -7 -16 -23 3 -23 8 0 12 5 9 10 -3 6 1 10 10 10 9 0
13 -4 10 -10 -3 -5 -1 -10 4 -10 6 0 11 5 11 12 0 9 3 9 11 1 12 -12 39 -7 39
8 0 9 -76 11 -97 2z"/>
<path d="M8101 1613 c-1 -6 -4 -20 -7 -30 -5 -17 -5 -17 6 0 6 10 9 23 6 30
-3 9 -5 9 -5 0z"/>
<path d="M2550 1590 c0 -5 7 -10 15 -10 8 0 15 5 15 10 0 6 -7 10 -15 10 -8 0
-15 -4 -15 -10z"/>
<path d="M3030 1585 c-18 -10 -20 -14 -8 -15 21 0 16 -34 -11 -71 -21 -29 -18
-39 11 -39 10 0 26 -8 36 -18 18 -18 19 -16 19 70 1 94 -2 98 -47 73z"/>
<path d="M7001 1518 c-6 -35 -11 -72 -10 -83 1 -11 -2 -40 -6 -64 -5 -31 -3
-46 6 -51 31 -20 36 0 32 127 -2 70 -5 128 -7 130 -2 2 -9 -24 -15 -59z"/>
<path d="M8070 1539 c-6 -11 -8 -29 -5 -39 5 -16 10 -18 26 -10 22 13 26 55 4
64 -9 3 -19 -3 -25 -15z"/>
<path d="M3325 1527 c-5 -12 -14 -16 -26 -12 -22 7 -22 5 -10 -28 11 -29 59
-43 68 -20 3 8 -1 29 -10 46 -13 27 -16 29 -22 14z"/>
<path d="M6715 1530 c-3 -5 -1 -10 4 -10 6 0 11 5 11 10 0 6 -2 10 -4 10 -3 0
-8 -4 -11 -10z"/>
<path d="M8000 1530 c0 -5 5 -10 10 -10 6 0 10 5 10 10 0 6 -4 10 -10 10 -5 0
-10 -4 -10 -10z"/>
<path d="M400 1509 c0 -5 4 -9 9 -9 5 0 17 -3 27 -7 11 -4 15 -3 11 4 -9 14
-47 24 -47 12z"/>
<path d="M6792 1500 c0 -14 2 -19 5 -12 2 6 2 18 0 25 -3 6 -5 1 -5 -13z"/>
<path d="M8015 1490 c3 -5 10 -10 16 -10 5 0 9 5 9 10 0 6 -7 10 -16 10 -8 0
-12 -4 -9 -10z"/>
<path d="M6803 1393 c2 -24 -2 -45 -8 -47 -5 -2 -3 -5 6 -5 19 -1 32 22 19 35
-5 5 -11 20 -13 34 -3 14 -5 6 -4 -17z"/>
<path d="M3050 1411 c0 -5 5 -13 10 -16 6 -3 10 -2 10 4 0 5 -4 13 -10 16 -5
3 -10 2 -10 -4z"/>
<path d="M3046 1363 c-6 -14 -5 -15 5 -6 7 7 10 15 7 18 -3 3 -9 -2 -12 -12z"/>
<path d="M3375 1350 c-3 -5 -1 -10 4 -10 6 0 11 5 11 10 0 6 -2 10 -4 10 -3 0
-8 -4 -11 -10z"/>
<path d="M3339 1334 c-10 -12 -9 -13 7 -8 18 7 18 7 2 -13 -26 -29 -22 -34 12
-15 35 20 36 23 11 39 -16 10 -22 9 -32 -3z"/>
<path d="M471 1263 c-6 -21 -11 -45 -10 -53 0 -8 7 7 14 35 8 27 12 51 10 53
-2 2 -8 -13 -14 -35z"/>
<path d="M6804 1253 c3 -27 15 -75 25 -108 l19 -60 4 102 c1 56 1 100 -1 98
-1 -2 -14 1 -28 6 l-26 10 7 -48z"/>
<path d="M6927 1283 c-11 -18 -19 -105 -13 -138 12 -63 26 -26 24 61 -3 86 -4
89 -11 77z"/>
<path d="M5970 1276 c0 -20 22 -56 35 -56 19 0 20 16 0 24 -8 3 -15 12 -15 21
0 8 -4 15 -10 15 -5 0 -10 -2 -10 -4z"/>
<path d="M6985 1233 c2 -27 4 -56 4 -67 1 -13 6 -17 21 -13 18 5 18 3 4 -19
-15 -22 -15 -23 11 -30 28 -7 28 -6 10 -74 l-6 -25 15 25 c8 14 15 19 16 13 0
-7 -9 -22 -20 -33 -11 -11 -20 -25 -20 -31 0 -6 9 -9 20 -6 16 4 20 0 20 -18
0 -13 5 -27 10 -30 13 -8 13 39 1 102 -6 26 -13 83 -16 125 -5 59 -12 83 -29
102 -33 40 -46 33 -41 -21z"/>
<path d="M8050 1264 c-8 -8 -9 -14 -4 -13 22 4 32 -2 37 -22 6 -23 27 -17 27
7 0 8 -4 13 -9 10 -5 -3 -11 3 -14 14 -6 24 -20 26 -37 4z"/>
<path d="M7356 1261 c-3 -4 -10 -20 -15 -34 -8 -21 -7 -26 7 -25 9 0 28 -4 41
-8 17 -5 22 -4 17 4 -4 7 -16 12 -26 12 -17 0 -18 4 -10 26 6 14 10 27 10 30
0 7 -19 4 -24 -5z"/>
<path d="M7560 1260 c0 -5 5 -10 11 -10 5 0 7 5 4 10 -3 6 -8 10 -11 10 -2 0
-4 -4 -4 -10z"/>
<path d="M7665 1260 c3 -5 8 -10 11 -10 2 0 4 5 4 10 0 6 -5 10 -11 10 -5 0
-7 -4 -4 -10z"/>
<path d="M7700 1230 c0 -5 5 -10 10 -10 6 0 10 5 10 10 0 6 -4 10 -10 10 -5 0
-10 -4 -10 -10z"/>
<path d="M7480 1181 c0 -5 21 -13 46 -17 37 -5 45 -10 41 -25 -3 -11 0 -16 8
-13 24 9 4 43 -29 49 -17 4 -39 9 -48 11 -10 3 -18 1 -18 -5z"/>
<path d="M7663 1149 c-1 -15 2 -17 23 -9 35 14 34 14 33 -22 0 -18 -3 -27 -6
-20 -2 6 -9 12 -14 12 -11 0 1 -32 17 -45 7 -5 16 -35 19 -65 20 -185 102
-334 223 -403 31 -17 50 -33 44 -35 -20 -6 -13 -22 9 -22 12 0 39 5 60 12 39
11 39 11 39 65 0 41 -3 53 -16 53 -8 0 -13 -4 -10 -9 7 -10 -41 -5 -76 8 -42
16 -99 80 -128 145 -33 75 -48 137 -58 240 l-7 79 -38 13 c-21 7 -55 15 -75
17 -31 4 -38 2 -39 -14z"/>
<path d="M462 1130 c0 -14 2 -19 5 -12 2 6 2 18 0 25 -3 6 -5 1 -5 -13z"/>
<path d="M5666 1135 c-3 -8 -1 -15 4 -15 6 0 10 7 10 15 0 8 -2 15 -4 15 -2 0
-6 -7 -10 -15z"/>
<path d="M7615 1131 c-3 -5 0 -13 6 -17 7 -4 9 -3 5 4 -3 5 0 13 6 15 9 4 10
6 1 6 -6 1 -14 -3 -18 -8z"/>
<path d="M3346 1093 c8 -35 19 -49 20 -25 1 9 4 25 9 35 5 13 2 17 -14 17 -18
0 -20 -4 -15 -27z"/>
<path d="M8030 1078 c-42 -54 -52 -72 -22 -38 29 32 65 80 59 80 -2 0 -19 -19
-37 -42z"/>
<path d="M7533 1064 c-38 -52 -32 -55 25 -14 45 32 51 44 26 54 -20 8 -14 12
-51 -40z"/>
<path d="M451 1084 c0 -11 3 -14 6 -6 3 7 2 16 -1 19 -3 4 -6 -2 -5 -13z"/>
<path d="M4094 1084 c3 -9 6 -23 7 -32 0 -13 2 -13 8 3 9 23 4 45 -11 45 -6 0
-7 -7 -4 -16z"/>
<path d="M7005 1090 c-3 -5 -1 -10 4 -10 6 0 11 5 11 10 0 6 -2 10 -4 10 -3 0
-8 -4 -11 -10z"/>
<path d="M8081 1084 c0 -11 3 -14 6 -6 3 7 2 16 -1 19 -3 4 -6 -2 -5 -13z"/>
<path d="M5020 1061 c0 -6 4 -13 10 -16 6 -3 7 1 4 9 -7 18 -14 21 -14 7z"/>
<path d="M430 1028 c0 -20 5 -40 10 -43 13 -8 13 45 0 65 -7 11 -10 6 -10 -22z"/>
<path d="M8072 1040 c0 -14 2 -19 5 -12 2 6 2 18 0 25 -3 6 -5 1 -5 -13z"/>
<path d="M6933 1043 c-19 -7 -16 -27 7 -41 16 -10 20 -10 19 0 -1 25 -14 45
-26 41z"/>
<path d="M7658 1029 c-28 -20 -34 -42 -22 -74 5 -12 14 -4 40 34 19 28 34 53
34 56 0 11 -26 3 -52 -16z"/>
<path d="M7170 1029 c0 -5 5 -7 10 -4 6 3 10 8 10 11 0 2 -4 4 -10 4 -5 0 -10
-5 -10 -11z"/>
<path d="M7460 1014 c0 -14 4 -23 9 -20 5 3 7 15 4 26 -7 28 -13 25 -13 -6z"/>
<path d="M4181 985 c-28 -62 -38 -115 -22 -115 6 0 23 7 36 16 26 17 31 54 15
119 l-7 30 -22 -50z"/>
<path d="M8061 984 c0 -11 3 -14 6 -6 3 7 2 16 -1 19 -3 4 -6 -2 -5 -13z"/>
<path d="M7168 926 c-1 -30 0 -52 4 -50 4 2 9 -6 11 -18 2 -13 5 7 6 44 1 80
-16 101 -21 24z"/>
<path d="M6988 948 c4 -17 2 -20 -11 -15 -9 3 -19 1 -23 -5 -4 -6 -3 -8 4 -4
6 3 13 2 17 -4 12 -20 25 -10 25 20 0 17 -4 30 -9 30 -5 0 -7 -10 -3 -22z"/>
<path d="M7552 958 c-7 -7 -12 -16 -12 -21 0 -5 7 -1 16 8 9 9 14 18 12 20 -2
3 -10 -1 -16 -7z"/>
<path d="M3071 916 c-14 -56 -14 -63 0 -49 11 11 25 93 16 93 -2 0 -10 -20
-16 -44z"/>
<path d="M6920 950 c8 -5 20 -10 25 -10 6 0 3 5 -5 10 -8 5 -19 10 -25 10 -5
0 -3 -5 5 -10z"/>
<path d="M7026 936 c-3 -14 -3 -32 0 -40 4 -10 1 -16 -7 -16 -8 0 -10 -3 -3
-10 11 -11 54 -2 54 12 0 5 -4 6 -10 3 -6 -4 -10 10 -10 34 0 45 -14 55 -24
17z"/>
<path d="M7536 907 l-39 -33 32 -14 c28 -11 34 -11 48 3 13 12 14 23 7 46 l-9
31 -39 -33z"/>
<path d="M6897 923 c-4 -3 -7 -11 -7 -17 0 -6 5 -5 12 2 6 6 9 14 7 17 -3 3
-9 2 -12 -2z"/>
<path d="M7495 921 c3 -6 -3 -14 -12 -20 -24 -14 -7 -14 18 0 19 10 18 29 -2
29 -6 0 -8 -4 -4 -9z"/>
<path d="M8051 914 c0 -11 3 -14 6 -6 3 7 2 16 -1 19 -3 4 -6 -2 -5 -13z"/>
<path d="M7288 908 c-5 -12 2 -18 28 -23 42 -7 74 1 74 21 0 16 -16 19 -25 4
-9 -14 -63 -12 -67 2 -3 8 -6 6 -10 -4z"/>
<path d="M6880 878 c0 -9 5 -20 10 -23 13 -8 13 5 0 25 -8 13 -10 13 -10 -2z"/>
<path d="M5690 851 c-12 -23 2 -29 28 -12 10 6 10 10 -2 20 -12 10 -17 8 -26
-8z"/>
<path d="M4720 840 c0 -11 7 -20 16 -20 8 0 12 5 9 10 -3 6 -1 10 4 10 6 0 11
5 11 10 0 6 -9 10 -20 10 -13 0 -20 -7 -20 -20z"/>
<path d="M6967 830 c-3 -11 0 -20 6 -20 7 -1 6 -5 -3 -13 -22 -18 -11 -145 11
-131 7 4 8 -8 4 -39 -6 -38 -4 -47 14 -59 11 -8 18 -18 15 -21 -4 -3 -4 -17 0
-31 5 -19 15 -26 48 -32 24 -5 49 -8 56 -7 6 0 12 -3 12 -7 0 -16 67 -20 106
-7 31 11 45 12 69 2 16 -7 35 -11 42 -8 16 6 17 33 2 33 -5 0 -7 -5 -3 -12 5
-8 0 -9 -17 -5 -13 4 -28 7 -32 7 -4 0 -7 7 -5 16 2 10 -3 19 -9 21 -7 3 -13
-3 -13 -11 0 -37 -102 -49 -120 -16 -8 14 -18 19 -31 15 -10 -3 -27 -7 -36
-10 -34 -9 -49 40 -46 148 l4 97 -31 29 c-29 26 -30 30 -16 44 21 21 20 37 -3
37 -10 0 -21 -9 -24 -20z"/>
<path d="M7160 820 c0 -5 5 -10 10 -10 6 0 10 5 10 10 0 6 -4 10 -10 10 -5 0
-10 -4 -10 -10z"/>
<path d="M7320 825 c0 -10 30 -65 36 -65 3 0 2 9 -1 21 -5 14 -1 25 12 34 17
13 15 14 -14 15 -18 0 -33 -2 -33 -5z"/>
<path d="M8031 804 c0 -11 3 -14 6 -6 3 7 2 16 -1 19 -3 4 -6 -2 -5 -13z"/>
<path d="M6088 803 c7 -3 16 -2 19 1 4 3 -2 6 -13 5 -11 0 -14 -3 -6 -6z"/>
<path d="M7475 780 c-3 -5 -2 -10 4 -10 5 0 13 5 16 10 3 6 2 10 -4 10 -5 0
-13 -4 -16 -10z"/>
<path d="M4657 763 c-8 -17 -7 -83 2 -83 5 0 7 9 4 20 -3 11 -1 20 4 20 11 0
11 -30 -1 -48 -4 -6 -5 -16 -2 -20 10 -17 -23 -50 -44 -45 -14 4 -20 0 -20
-11 0 -17 -8 -19 -54 -16 -18 1 -26 -2 -22 -9 9 -14 61 -14 88 0 11 6 31 12
45 14 30 3 41 14 24 24 -9 6 -10 11 -2 15 6 4 11 2 11 -5 0 -10 3 -10 11 -2 7
7 13 36 15 66 3 43 0 56 -12 61 -9 3 -21 3 -26 -1 -6 -3 -8 -1 -4 5 3 6 2 13
-3 16 -5 4 -11 3 -14 -1z"/>
<path d="M5223 758 c1 -6 -8 -12 -21 -13 -31 -2 -46 -20 -37 -42 5 -10 7 -21
7 -25 -1 -5 6 -8 16 -8 9 0 13 -4 7 -8 -14 -10 -19 -31 -18 -71 2 -29 0 -31
-11 -15 -12 16 -13 15 -18 -10 -3 -14 -1 -29 3 -32 5 -3 9 -13 9 -24 0 -14 -6
-17 -22 -13 -20 4 -21 3 -5 -7 14 -9 17 -28 19 -113 2 -95 2 -97 5 -25 3 58 7
76 17 72 17 -6 38 20 34 42 -2 11 7 23 21 30 13 7 28 20 33 28 8 14 5 14 -18
6 -14 -6 -34 -20 -45 -33 -10 -12 -18 -16 -19 -9 0 6 4 12 9 12 9 0 26 48 22
63 -1 5 3 5 9 2 6 -4 17 1 24 11 15 20 3 83 -18 97 -8 5 -7 9 2 16 8 4 12 17
11 27 -2 11 0 24 4 30 4 7 0 14 -8 18 -8 3 -14 0 -12 -6z m4 -34 c-3 -3 -12
-4 -19 -1 -8 3 -5 6 6 6 11 1 17 -2 13 -5z m13 -94 c0 -5 -7 -7 -15 -4 -8 4
-15 8 -15 10 0 2 7 4 15 4 8 0 15 -4 15 -10z m-45 -170 c-3 -5 -14 -10 -23
-10 -15 0 -15 2 -2 10 20 13 33 13 25 0z"/>
<path d="M6876 719 c-48 -97 -24 -187 57 -215 44 -15 48 -5 18 54 -10 20 -24
75 -30 121 -6 46 -13 86 -15 88 -2 2 -15 -20 -30 -48z"/>
<path d="M7305 750 c-3 -11 -4 -24 -1 -29 3 -5 -4 -12 -17 -16 -19 -6 -19 -8
-4 -12 20 -5 22 -19 5 -26 -8 -3 -6 -6 4 -6 19 -1 27 24 26 77 -1 37 -4 40
-13 12z"/>
<path d="M5685 750 c-8 -13 5 -13 25 0 13 8 13 10 -2 10 -9 0 -20 -4 -23 -10z"/>
<path d="M7153 711 c4 -60 13 -75 23 -35 3 16 14 35 23 43 14 12 13 12 -6 6
-17 -5 -23 -2 -23 9 0 8 -4 18 -10 21 -6 4 -9 -13 -7 -44z"/>
<path d="M3877 735 c-7 -17 41 -33 118 -40 l50 -4 -51 12 c-28 6 -62 20 -77
30 -32 21 -33 21 -40 2z"/>
<path d="M7460 733 c0 -13 5 -23 10 -23 13 0 13 11 0 30 -8 12 -10 11 -10 -7z"/>
<path d="M8000 744 c0 -7 -11 -9 -27 -6 -21 3 -25 1 -18 -7 6 -6 24 -12 41
-14 16 -2 39 -9 51 -15 12 -7 28 -12 35 -12 7 1 -5 10 -27 22 -22 11 -43 26
-47 32 -6 8 -8 8 -8 0z"/>
<path d="M4586 705 c-9 -26 -7 -32 5 -12 6 10 9 21 6 23 -2 3 -7 -2 -11 -11z"/>
<path d="M6154 676 c-39 -33 -25 -42 42 -27 42 10 54 17 52 29 -5 28 -61 27
-94 -2z m41 -6 c-3 -5 -16 -10 -28 -9 -21 0 -21 1 -2 9 28 12 37 12 30 0z"/>
<path d="M1395 680 c3 -5 11 -10 16 -10 6 0 7 5 4 10 -3 6 -11 10 -16 10 -6 0
-7 -4 -4 -10z"/>
<path d="M1495 636 c72 -36 130 -45 166 -26 10 6 19 18 19 26 0 13 -7 15 -37
9 -74 -14 -94 -14 -135 -1 -24 8 -52 16 -63 20 -11 3 12 -9 50 -28z"/>
<path d="M5994 661 c4 -6 16 -16 28 -22 15 -8 18 -8 14 0 -4 6 -16 16 -28 22
-15 8 -18 8 -14 0z"/>
<path d="M2030 649 c0 -5 9 -9 20 -9 11 0 20 2 20 4 0 2 -9 6 -20 9 -11 3 -20
1 -20 -4z"/>
<path d="M4220 635 c47 -25 91 -30 125 -14 14 6 6 8 -27 4 -36 -5 -56 -1 -87
14 -56 29 -66 25 -11 -4z"/>
<path d="M4632 634 c-7 -8 -8 -14 -3 -14 10 0 25 19 20 25 -2 1 -10 -3 -17
-11z"/>
<path d="M5686 629 l-30 -23 25 -7 c36 -10 102 -10 119 1 13 8 13 11 -1 25
-28 28 -80 30 -113 4z m109 -9 c3 -5 -9 -7 -32 -4 -49 6 -55 14 -10 14 20 0
38 -4 42 -10z"/>
<path d="M5116 615 c-9 -14 -12 -25 -7 -25 12 0 35 39 28 46 -2 3 -12 -7 -21
-21z"/>
<path d="M7491 614 c-21 -17 -36 -44 -47 -82 -9 -31 -23 -62 -30 -70 -8 -7
-14 -17 -14 -22 0 -4 -16 -15 -35 -24 -19 -9 -37 -21 -40 -26 -10 -17 -55 -11
-187 23 -71 18 -128 30 -128 27 0 -4 28 -14 63 -23 34 -9 87 -24 117 -32 56
-15 142 -20 153 -8 4 3 29 6 57 6 36 1 47 4 40 12 -22 26 3 21 33 -7 74 -69
60 -66 132 -30 36 17 65 37 65 43 0 6 -7 8 -16 5 -13 -5 -15 -2 -10 16 4 13 9
41 11 63 l5 40 -13 -35 c-19 -54 -25 -61 -55 -54 -56 14 -66 44 -33 98 11 17
22 48 26 69 l7 37 -35 0 c-24 0 -46 -9 -66 -26z"/>
<path d="M4411 616 c-6 -7 -8 -16 -4 -19 3 -4 0 -13 -7 -22 -10 -13 -9 -15 7
-15 16 0 43 35 43 54 0 12 -30 13 -39 2z"/>
<path d="M7276 607 c3 -10 9 -15 12 -12 3 3 0 11 -7 18 -10 9 -11 8 -5 -6z"/>
<path d="M4575 600 c-3 -5 -1 -10 4 -10 6 0 11 5 11 10 0 6 -2 10 -4 10 -3 0
-8 -4 -11 -10z"/>
<path d="M6100 600 c33 -11 100 -11 125 0 13 6 -9 8 -65 8 -57 0 -77 -3 -60
-8z"/>
<path d="M4715 590 c3 -5 11 -10 16 -10 6 0 7 5 4 10 -3 6 -11 10 -16 10 -6 0
-7 -4 -4 -10z"/>
<path d="M2623 573 c9 -2 23 -2 30 0 6 3 -1 5 -18 5 -16 0 -22 -2 -12 -5z"/>
<path d="M3256 571 c-7 -11 28 -21 74 -21 19 0 45 3 57 6 42 11 12 24 -57 24
-38 0 -71 -4 -74 -9z"/>
<path d="M5117 554 c-3 -4 -21 -9 -39 -13 -24 -5 -32 -12 -30 -25 2 -10 -3
-25 -10 -34 -9 -11 -5 -11 14 3 15 11 28 25 28 31 0 16 38 25 44 10 2 -6 5 -1
5 12 1 23 -1 26 -12 16z"/>
<path d="M5735 550 l-60 -7 55 -1 c30 0 64 3 75 8 22 10 17 10 -70 0z"/>
<path d="M7143 543 c4 -7 0 -13 -10 -16 -10 -3 4 -5 30 -6 28 -1 46 3 42 9 -3
5 -12 7 -20 3 -9 -3 -23 1 -32 8 -10 8 -14 9 -10 2z"/>
<path d="M7412 520 c0 -14 2 -19 5 -12 2 6 2 18 0 25 -3 6 -5 1 -5 -13z"/>
<path d="M1225 511 c-46 -6 -48 -7 -20 -14 62 -14 135 -18 155 -7 50 27 -12
36 -135 21z"/>
<path d="M4420 507 c0 -8 15 -13 43 -14 23 -1 60 -4 82 -6 22 -2 46 0 53 6 7
6 37 7 72 4 35 -4 62 -3 65 3 6 10 -23 13 -123 14 -24 1 -46 -2 -48 -5 -2 -3
-25 -2 -51 2 -70 11 -93 11 -93 -4z"/>
<path d="M2936 483 c-13 -69 -16 -130 -7 -158 7 -24 9 -11 10 61 1 91 1 91 25
87 13 -3 36 3 50 12 25 16 39 16 77 1 10 -5 19 -1 22 8 6 14 -6 16 -83 16
l-88 0 -6 -27z"/>
<path d="M5260 488 c0 -11 28 -10 35 1 3 6 -4 9 -15 8 -11 -1 -20 -5 -20 -9z"/>
<path d="M2392 430 c0 -19 2 -27 5 -17 2 9 2 25 0 35 -3 9 -5 1 -5 -18z"/>
<path d="M2451 359 c1 -70 4 -94 9 -72 7 32 4 163 -5 172 -3 2 -5 -43 -4 -100z"/>
<path d="M3221 439 c-1 -16 10 -35 30 -55 19 -18 28 -22 24 -11 -4 9 -11 17
-17 17 -5 0 -7 4 -4 9 3 5 0 11 -8 14 -8 3 -16 16 -19 29 -4 22 -4 22 -6 -3z"/>
<path d="M4465 447 c-6 -14 0 -26 25 -50 19 -18 27 -23 19 -13 -13 18 -12 19
4 13 9 -3 17 -4 17 -1 0 2 -11 9 -24 14 -14 5 -26 19 -28 32 -4 21 -5 21 -13
5z"/>
<path d="M4531 444 c0 -11 3 -14 6 -6 3 7 2 16 -1 19 -3 4 -6 -2 -5 -13z"/>
<path d="M5080 381 c0 -44 5 -83 10 -86 6 -4 10 25 10 79 0 51 -4 86 -10 86
-6 0 -10 -33 -10 -79z"/>
<path d="M2242 353 l2 -98 3 85 c3 58 7 80 13 70 8 -12 10 -11 10 7 0 12 6 24
13 26 6 3 0 6 -15 6 l-28 1 2 -97z"/>
<path d="M2570 427 c0 -14 6 -24 15 -24 8 0 12 4 9 9 -3 4 1 8 8 8 10 0 10 2
-1 9 -11 7 -11 9 0 14 8 3 4 6 -8 6 -18 1 -23 -5 -23 -22z"/>
<path d="M3040 369 c0 -51 4 -78 10 -74 6 3 10 40 10 81 0 43 -4 74 -10 74 -6
0 -10 -34 -10 -81z"/>
<path d="M3110 380 c0 -40 2 -71 5 -68 8 7 8 128 1 135 -3 4 -6 -27 -6 -67z"/>
<path d="M3420 363 c0 -106 7 -107 11 -1 2 42 6 75 10 72 4 -2 10 0 14 6 3 5
-3 10 -14 10 -20 0 -21 -6 -21 -87z"/>
<path d="M3658 398 c5 -95 9 -104 11 -25 0 42 -2 77 -6 77 -5 0 -7 -24 -5 -52z"/>
<path d="M3721 370 c-1 -96 -6 -107 -47 -120 -29 -8 -29 -8 -3 -9 14 -1 33 7
42 17 19 21 30 114 18 162 -7 29 -9 20 -10 -50z"/>
<path d="M3941 443 c0 -5 4 -17 9 -28 8 -18 9 -17 9 8 1 15 -3 27 -9 27 -5 0
-10 -3 -9 -7z"/>
<path d="M4120 425 c0 -17 5 -25 18 -25 14 0 15 2 2 10 -12 8 -12 10 5 10 15
0 17 2 6 9 -11 7 -11 9 0 14 8 3 4 6 -8 6 -18 1 -23 -5 -23 -24z"/>
<path d="M4288 432 c-3 -9 -1 -26 3 -37 6 -15 8 -11 8 18 1 40 -4 48 -11 19z"/>
<path d="M4350 416 c0 -21 -5 -46 -10 -57 -7 -12 -7 -25 -2 -36 8 -13 11 -10
18 18 8 36 8 98 -1 107 -3 3 -5 -11 -5 -32z"/>
<path d="M4640 424 c0 -19 4 -25 18 -22 9 2 16 10 14 18 -2 7 3 17 10 21 9 6
4 9 -14 9 -23 0 -28 -4 -28 -26z"/>
<path d="M4902 375 c-1 -45 2 -75 8 -75 6 0 10 31 10 75 0 98 -14 98 -18 0z"/>
<path d="M4971 371 c-1 -72 -4 -88 -23 -108 -23 -24 -13 -31 15 -10 19 14 29
118 16 171 -5 22 -7 6 -8 -53z"/>
<path d="M5260 377 c0 -42 4 -77 8 -77 9 0 6 140 -3 148 -3 3 -5 -29 -5 -71z"/>
<path d="M5824 360 c0 -52 1 -74 3 -47 2 26 2 68 0 95 -2 26 -3 4 -3 -48z"/>
<path d="M5951 434 c0 -11 3 -14 6 -6 3 7 2 16 -1 19 -3 4 -6 -2 -5 -13z"/>
<path d="M6014 360 c0 -52 1 -74 3 -47 2 26 2 68 0 95 -2 26 -3 4 -3 -48z"/>
<path d="M6130 425 c0 -14 5 -25 10 -25 9 0 12 8 9 26 0 4 5 11 13 15 9 6 7 9
-9 9 -18 0 -23 -6 -23 -25z"/>
<path d="M3843 365 c0 -44 2 -61 4 -37 2 23 2 59 0 80 -2 20 -4 1 -4 -43z"/>
<path d="M4001 377 c-6 -35 -11 -75 -11 -88 0 -14 -5 -30 -12 -37 -9 -9 -9
-12 0 -12 6 0 16 8 21 18 10 19 27 182 18 182 -3 0 -10 -28 -16 -63z"/>
<path d="M5665 430 c-3 -5 -1 -10 4 -10 6 0 11 5 11 10 0 6 -2 10 -4 10 -3 0
-8 -4 -11 -10z"/>
<path d="M5421 368 c0 -38 2 -68 7 -68 4 0 6 21 4 48 -5 82 -9 89 -11 20z"/>
<path d="M5663 360 c0 -25 2 -35 4 -22 2 12 2 32 0 45 -2 12 -4 2 -4 -23z"/>
<path d="M130 340 c0 -5 9 -10 21 -10 11 0 17 5 14 10 -3 6 -13 10 -21 10 -8
0 -14 -4 -14 -10z"/>
<path d="M2388 313 c5 -59 10 -63 11 -10 1 26 -3 47 -7 47 -4 0 -6 -17 -4 -37z"/>
<path d="M2570 324 c0 -27 14 -25 30 7 9 16 7 19 -10 19 -15 0 -20 -7 -20 -26z"/>
<path d="M4120 325 c0 -14 5 -25 12 -25 6 0 8 3 5 7 -4 3 0 15 10 25 15 17 15
18 -5 18 -17 0 -22 -6 -22 -25z"/>
<path d="M4640 325 c0 -28 24 -34 34 -9 8 20 -1 34 -20 34 -8 0 -14 -10 -14
-25z"/>
<path d="M6131 322 c0 -16 3 -21 6 -12 4 8 13 20 20 25 12 9 10 11 -6 12 -17
1 -21 -4 -20 -25z"/>
<path d="M3282 311 c-1 -19 -9 -43 -19 -53 -17 -19 -8 -24 15 -9 9 5 12 23 9
52 -3 37 -4 39 -5 10z"/>
<path d="M5931 292 c-1 -44 1 -51 13 -40 13 12 12 20 -7 78 -3 8 -6 -9 -6 -38z"/>
<path d="M2833 297 c0 -21 3 -34 6 -29 3 5 14 11 24 15 9 4 17 16 17 29 -1 20
-2 21 -11 6 -5 -10 -14 -18 -19 -18 -5 0 -11 8 -13 18 -2 9 -4 0 -4 -21z"/>
<path d="M3221 304 c0 -11 3 -14 6 -6 3 7 2 16 -1 19 -3 4 -6 -2 -5 -13z"/>
<path d="M4530 300 c0 -11 -9 -29 -20 -40 -11 -11 -16 -20 -11 -20 18 0 41 32
41 56 0 13 -2 24 -5 24 -3 0 -5 -9 -5 -20z"/>
<path d="M5668 303 c7 -3 16 -2 19 1 4 3 -2 6 -13 5 -11 0 -14 -3 -6 -6z"/>
<path d="M3110 292 c0 -7 -9 -21 -20 -32 -13 -13 -16 -20 -7 -20 15 0 42 49
32 58 -3 3 -5 0 -5 -6z"/>
<path d="M4286 275 c-3 -8 -1 -15 4 -15 6 0 10 7 10 15 0 8 -2 15 -4 15 -2 0
-6 -7 -10 -15z"/>
<path d="M5120 254 c-23 -13 -24 -14 -4 -14 12 0 27 7 34 15 15 18 4 18 -30
-1z"/>
<path d="M2578 243 c6 -2 18 -2 25 0 6 3 1 5 -13 5 -14 0 -19 -2 -12 -5z"/>
<path d="M4133 243 c9 -2 23 -2 30 0 6 3 -1 5 -18 5 -16 0 -22 -2 -12 -5z"/>
<path d="M4653 243 c9 -2 23 -2 30 0 6 3 -1 5 -18 5 -16 0 -22 -2 -12 -5z"/>
<path d="M4898 243 c7 -3 16 -2 19 1 4 3 -2 6 -13 5 -11 0 -14 -3 -6 -6z"/>
<path d="M6148 243 c7 -3 16 -2 19 1 4 3 -2 6 -13 5 -11 0 -14 -3 -6 -6z"/>
</g>
</svg>
